<svg width="270" height="86" viewBox="0 0 270 86" fill="none" xmlns="http://www.w3.org/2000/svg">
<g clip-path="url(#clip0_528_33834)">
<path d="M66.6846 31.7035C66.6846 29.9748 67.0373 28.4439 67.7427 27.111C68.4481 25.778 69.4336 24.747 70.6992 24.018C71.9649 23.289 73.4276 22.9246 75.0874 22.9246C76.685 22.9246 78.1114 23.2995 79.3666 24.0493C80.6218 24.7991 81.6004 25.8509 82.3076 27.2047C83.013 28.5585 83.3657 30.0998 83.3657 31.8285V33.1406H71.135C71.1972 34.182 71.5914 35.0256 72.3176 35.6712C73.0437 36.3169 73.9981 36.6397 75.1807 36.6397C76.0107 36.6397 76.7783 36.4592 77.4837 36.093C78.1892 35.7302 78.9568 35.0984 79.7867 34.2028L82.5566 37.0459C81.6022 38.1081 80.5025 38.936 79.2577 39.5296C78.0128 40.1232 76.6538 40.42 75.1807 40.42C73.5002 40.42 72.0167 40.0555 70.7304 39.3265C69.444 38.5975 68.4481 37.5718 67.7427 36.2492C67.0373 34.9266 66.6846 33.4114 66.6846 31.7035ZM78.8842 29.8915C78.8012 28.9751 78.4018 28.2148 77.686 27.6108C76.9702 27.0068 76.104 26.7048 75.0874 26.7048C74.0293 26.7048 73.1578 26.9964 72.4732 27.5796C71.7885 28.1628 71.3632 28.9334 71.1972 29.8915H78.8842Z" fill="#36364C"/>
<path d="M96.9034 27.3921V34.0466C96.9034 34.609 97.0331 35.0151 97.2924 35.2651C97.5518 35.515 97.9823 35.64 98.584 35.64H102.35V39.9513H98.1794C96.3536 39.9513 94.9428 39.5192 93.9469 38.6548C92.951 37.7904 92.453 36.5564 92.453 34.9526V27.3921H88.4072V23.3932H92.453V19.1755H96.9034V23.3932H103.377V27.3921H96.9034Z" fill="#36364C"/>
<path d="M109.041 17.1448H113.491V24.924H113.554C114.716 23.591 116.303 22.9245 118.315 22.9245C119.519 22.9245 120.587 23.2161 121.521 23.7993C122.454 24.3825 123.179 25.2052 123.699 26.2674C124.218 27.3296 124.477 28.5584 124.477 29.9539V39.9513H120.027V30.5475C120.027 29.4436 119.747 28.5793 119.187 27.9544C118.626 27.3296 117.859 27.0172 116.884 27.0172C115.826 27.0172 114.996 27.3244 114.394 27.9388C113.792 28.5532 113.491 29.402 113.491 30.485V39.9513H109.041V17.1448Z" fill="#36364C"/>
<path d="M129.052 31.7035C129.052 29.9748 129.404 28.4439 130.11 27.111C130.815 25.778 131.801 24.747 133.066 24.018C134.332 23.289 135.795 22.9246 137.455 22.9246C139.052 22.9246 140.479 23.2995 141.734 24.0493C142.989 24.7991 143.968 25.8509 144.675 27.2047C145.38 28.5585 145.733 30.0998 145.733 31.8285V33.1406H133.502C133.564 34.182 133.959 35.0256 134.685 35.6712C135.411 36.3169 136.365 36.6397 137.548 36.6397C138.378 36.6397 139.146 36.4592 139.851 36.093C140.556 35.7302 141.324 35.0984 142.154 34.2028L144.924 37.0459C143.969 38.1081 142.87 38.936 141.625 39.5296C140.38 40.1232 139.021 40.42 137.548 40.42C135.867 40.42 134.384 40.0555 133.098 39.3265C131.811 38.5975 130.815 37.5718 130.11 36.2492C129.404 34.9266 129.052 33.4114 129.052 31.7035ZM141.251 29.8915C141.168 28.9751 140.769 28.2148 140.053 27.6108C139.337 27.0068 138.471 26.7048 137.455 26.7048C136.396 26.7048 135.525 26.9964 134.84 27.5796C134.156 28.1628 133.73 28.9334 133.564 29.8915H141.251Z" fill="#36364C"/>
<path d="M151.833 23.3932H156.097V24.924H156.159C156.863 24.2159 157.594 23.7056 158.353 23.3932C159.112 23.0808 159.976 22.9246 160.952 22.9246C162.383 22.9246 163.618 23.3463 164.657 24.1899C165.694 25.0334 166.42 26.1841 166.835 27.6421L162.665 29.0167C162.188 27.6629 161.202 26.986 159.708 26.986C158.588 26.986 157.736 27.314 157.157 27.9701C156.574 28.6262 156.283 29.527 156.283 30.6725V39.9513H151.835L151.833 23.3932Z" fill="#36364C"/>
<path d="M170.631 31.7035C170.631 29.9748 170.984 28.4439 171.687 27.111C172.393 25.778 173.38 24.747 174.644 24.018C175.909 23.289 177.372 22.9246 179.032 22.9246C180.63 22.9246 182.056 23.2995 183.313 24.0493C184.568 24.7991 185.548 25.8509 186.254 27.2047C186.958 28.5585 187.31 30.0998 187.31 31.8285V33.1406H175.081C175.142 34.182 175.538 35.0256 176.264 35.6712C176.99 36.3169 177.944 36.6397 179.127 36.6397C179.955 36.6397 180.725 36.4592 181.43 36.093C182.134 35.7302 182.903 35.0984 183.733 34.2028L186.503 37.0459C185.548 38.1081 184.449 38.936 183.204 39.5296C181.959 40.1232 180.6 40.42 179.129 40.42C177.446 40.42 175.965 40.0555 174.678 39.3265C173.392 38.5975 172.396 37.5718 171.689 36.2492C170.985 34.9266 170.631 33.4114 170.631 31.7035ZM182.829 29.8915C182.746 28.9751 182.346 28.2148 181.631 27.6108C180.917 27.0068 180.049 26.7048 179.032 26.7048C177.976 26.7048 177.104 26.9964 176.418 27.5796C175.733 28.1628 175.308 28.9334 175.142 29.8915H182.829Z" fill="#36364C"/>
<path d="M192.352 34.3277V23.3931H196.8V33.2967C196.8 35.317 197.796 36.3272 199.79 36.3272C200.682 36.3272 201.392 36.0512 201.921 35.4993C202.451 34.9473 202.715 34.2131 202.715 33.2967V23.3931H207.164V39.9512H202.9V38.4829H202.838C202.381 39.066 201.754 39.5347 200.955 39.8887C200.156 40.2428 199.321 40.4198 198.45 40.4198C196.499 40.4198 194.995 39.8835 193.939 38.8109C192.881 37.7383 192.352 36.2439 192.352 34.3277Z" fill="#36364C"/>
<path d="M211.74 23.3932H215.663V24.8304H215.725C216.076 24.268 216.529 23.8358 217.077 23.5338C217.627 23.2318 218.234 23.0808 218.899 23.0808C220.207 23.0808 221.253 23.6952 222.041 24.9241H222.103C222.931 23.6952 224.074 23.0808 225.527 23.0808C226.728 23.0808 227.705 23.5078 228.45 24.3617C229.199 25.2157 229.571 26.33 229.571 27.7046V39.9514H225.463V28.4856C225.463 28.0066 225.338 27.6421 225.089 27.3922C224.838 27.1422 224.486 27.0173 224.031 27.0173C223.595 27.0173 223.248 27.1579 222.987 27.439C222.729 27.7202 222.598 28.1003 222.598 28.5794V39.9514H218.708V28.4856C218.708 28.0274 218.588 27.6681 218.35 27.4078C218.111 27.1475 217.774 27.0173 217.338 27.0173C216.882 27.0173 216.517 27.1579 216.249 27.439C215.979 27.7202 215.844 28.1003 215.844 28.5794V39.9514H211.736V23.3932H211.74Z" fill="#36364C"/>
<path d="M71.6637 62.2112H67.3066V58.2122H71.6637V55.7754C71.6637 54.3174 72.146 53.1667 73.1108 52.3232C74.0756 51.4814 75.4086 51.0579 77.1099 51.0579H81.9026V55.0256H77.639C77.2033 55.0256 76.8713 55.1384 76.6431 55.3675C76.4149 55.5983 76.3008 55.9194 76.3008 56.3377V58.2122H82.8985V62.2112H76.3008V72.9271H71.6637V62.2112Z" fill="#36364C"/>
<path d="M87.4736 64.6496C87.4736 62.9417 87.8263 61.4264 88.5318 60.1039C89.2372 58.7813 90.2279 57.7503 91.5039 57.0109C92.7799 56.2716 94.2374 55.9019 95.8764 55.9019C97.5363 55.9019 99.0042 56.2716 100.28 57.0109C101.556 57.7503 102.547 58.783 103.252 60.1039C103.958 61.4264 104.31 62.9417 104.31 64.6496C104.31 66.3574 103.958 67.8709 103.252 69.1952C102.547 70.5178 101.556 71.5471 100.28 72.2864C99.0042 73.0258 97.5363 73.3955 95.8764 73.3955C94.2374 73.3955 92.7799 73.0258 91.5039 72.2864C90.2279 71.5471 89.2372 70.5161 88.5318 69.1952C87.8263 67.8709 87.4736 66.3557 87.4736 64.6496ZM99.86 64.6496C99.86 63.1916 99.5125 62.0513 98.8174 61.2268C98.1224 60.4041 97.1421 59.9928 95.8764 59.9928C94.6316 59.9928 93.6616 60.4041 92.9666 61.2268C92.2715 62.0513 91.924 63.1916 91.924 64.6496C91.924 66.1075 92.2715 67.2478 92.9666 68.0705C93.6616 68.895 94.6316 69.3046 95.8764 69.3046C97.1213 69.3046 98.0964 68.888 98.8019 68.0549C99.5073 67.2235 99.86 66.0867 99.86 64.6496Z" fill="#36364C"/>
<path d="M109.196 67.3036V56.3689H113.647V66.2726C113.647 68.2929 114.643 69.303 116.634 69.303C117.526 69.303 118.237 69.0271 118.766 68.4751C119.295 67.9232 119.56 67.189 119.56 66.2708V56.3672H124.01V72.9253H119.746V71.457H119.684C119.228 72.0402 118.6 72.507 117.801 72.8629C117.003 73.2187 116.168 73.394 115.296 73.394C113.346 73.394 111.842 72.8577 110.783 71.785C109.725 70.7124 109.196 69.2197 109.196 67.3036Z" fill="#36364C"/>
<path d="M129.83 56.3688H134.28V57.9309H134.343C135.007 57.2644 135.722 56.7593 136.49 56.4156C137.258 56.072 138.129 55.9001 139.104 55.9001C140.183 55.9001 141.189 56.1535 142.123 56.6638C143.057 57.1759 143.814 57.9552 144.395 59.0087C144.976 60.0588 145.266 61.3657 145.266 62.9296V72.9269H140.816V63.5231C140.816 62.4627 140.546 61.607 140.007 60.9613C139.467 60.3157 138.689 59.9911 137.673 59.9911C136.615 59.9911 135.785 60.3 135.183 60.9127C134.581 61.5271 134.28 62.3776 134.28 63.4589V72.9252H129.83V56.3688Z" fill="#36364C"/>
<path d="M149.497 64.6498C149.497 62.9835 149.82 61.4839 150.463 60.1509C151.105 58.8162 152.009 57.7766 153.169 57.025C154.331 56.2752 155.649 55.902 157.122 55.902C158.989 55.902 160.452 56.4019 161.51 57.4017H161.572V50.1223H166.021V72.9288H161.914V71.4917H161.852C160.628 72.7622 159.029 73.3975 157.059 73.3975C155.607 73.3975 154.305 73.033 153.154 72.304C152.002 71.575 151.103 70.5492 150.462 69.2284C149.818 67.9058 149.495 66.3802 149.495 64.6515L149.497 64.6498ZM161.574 65.7102V63.5563C161.574 62.9315 161.406 62.3483 161.076 61.805C160.744 61.2635 160.282 60.8278 159.691 60.4929C159.1 60.1613 158.439 59.993 157.713 59.993C156.551 59.993 155.633 60.4148 154.959 61.2583C154.284 62.1018 153.947 63.2317 153.947 64.648C153.947 66.0435 154.29 67.1682 154.974 68.0204C155.659 68.8743 156.561 69.3013 157.682 69.3013C158.802 69.3013 159.731 68.9524 160.467 68.2547C161.204 67.557 161.572 66.7065 161.572 65.7068L161.574 65.7102Z" fill="#36364C"/>
<path d="M171.657 68.4923C171.657 66.9511 172.181 65.7535 173.229 64.8995C174.275 64.0473 176.025 63.4207 178.473 63.025C179.758 62.8185 180.636 62.5824 181.103 62.3238C181.571 62.0635 181.803 61.7129 181.803 61.2755C181.803 60.7756 181.573 60.3799 181.118 60.0883C180.664 59.7967 180.04 59.6509 179.251 59.6509C178.359 59.6509 177.586 59.9199 176.933 60.4632C176.279 61.0064 175.859 61.7233 175.672 62.6189L171.531 61.6816C171.739 60.5569 172.206 59.5554 172.933 58.6807C173.66 57.8059 174.571 57.1255 175.672 56.6343C176.772 56.1449 177.963 55.9001 179.249 55.9001C181.367 55.9001 183.057 56.4937 184.324 57.6792C185.588 58.8681 186.222 60.451 186.222 62.4279V72.9252H182.239V71.0819H182.177C181.699 71.8109 181.03 72.3767 180.169 72.7829C179.308 73.189 178.338 73.3921 177.259 73.3921C176.18 73.3921 175.214 73.1855 174.365 72.769C173.514 72.3524 172.849 71.7692 172.373 71.0194C171.896 70.2679 171.657 69.4261 171.657 68.4889V68.4923ZM181.988 66.7723V64.8978H181.928C181.741 65.2119 181.43 65.4601 180.994 65.6493C180.558 65.835 179.874 66.0242 178.94 66.2099C177.778 66.4616 176.979 66.7254 176.544 67.0066C176.108 67.2878 175.89 67.68 175.89 68.1799C175.89 68.6572 176.08 69.0217 176.466 69.2734C176.85 69.5233 177.405 69.6483 178.131 69.6483C178.795 69.6483 179.427 69.5181 180.029 69.256C180.631 68.9939 181.108 68.6416 181.461 68.1955C181.813 67.7495 181.99 67.2739 181.99 66.774L181.988 66.7723Z" fill="#36364C"/>
<path d="M200.848 60.3695V67.024C200.848 67.5846 200.976 67.9925 201.237 68.2407C201.496 68.4923 201.925 68.6173 202.529 68.6173H206.294V72.9269H202.124C200.298 72.9269 198.887 72.4947 197.893 71.6304C196.897 70.766 196.399 69.532 196.399 67.9282V60.3695H192.354V56.3688H196.399V52.1511H200.85V56.3688H207.323V60.3695H200.848Z" fill="#36364C"/>
<path d="M228.733 68.836V72.9269H212.519V68.836H218.401V60.4632H212.828V56.3705H222.851V68.8377H228.731L228.733 68.836ZM218.307 49.3723H222.882V53.7757H218.307V49.3723Z" fill="#36364C"/>
<path d="M232.996 64.6496C232.996 62.9417 233.349 61.4264 234.053 60.1039C234.758 58.7813 235.749 57.7503 237.026 57.0109C238.301 56.2716 239.76 55.9019 241.397 55.9019C243.057 55.9019 244.527 56.2716 245.803 57.0109C247.077 57.7503 248.069 58.783 248.775 60.1039C249.478 61.4264 249.831 62.9417 249.831 64.6496C249.831 66.3574 249.478 67.8709 248.775 69.1952C248.069 70.5178 247.079 71.5471 245.803 72.2864C244.527 73.0258 243.057 73.3955 241.397 73.3955C239.76 73.3955 238.301 73.0258 237.026 72.2864C235.75 71.5471 234.758 70.5161 234.053 69.1952C233.349 67.8709 232.996 66.3557 232.996 64.6496ZM245.382 64.6496C245.382 63.1916 245.035 62.0513 244.338 61.2268C243.643 60.4041 242.663 59.9928 241.397 59.9928C240.152 59.9928 239.184 60.4041 238.487 61.2268C237.792 62.0513 237.445 63.1916 237.445 64.6496C237.445 66.1075 237.791 67.2478 238.487 68.0705C239.182 68.895 240.152 69.3046 241.397 69.3046C242.642 69.3046 243.617 68.888 244.323 68.0549C245.028 67.2218 245.382 66.0867 245.382 64.6496Z" fill="#36364C"/>
<path d="M254.565 56.3688H259.014V57.9309H259.076C259.74 57.2644 260.456 56.7593 261.224 56.4156C261.99 56.072 262.863 55.9001 263.838 55.9001C264.917 55.9001 265.923 56.1535 266.857 56.6638C267.79 57.1759 268.549 57.9552 269.129 59.0087C269.71 60.0588 270 61.3657 270 62.9296V72.9269H265.55V63.5231C265.55 62.4627 265.28 61.607 264.74 60.9613C264.201 60.3157 263.421 59.9911 262.405 59.9911C261.348 59.9911 260.517 60.3 259.917 60.9127C259.313 61.5271 259.014 62.3776 259.014 63.4589V72.9252H254.565V56.3688Z" fill="#36364C"/>
<path d="M66.6846 31.7035C66.6846 29.9748 67.0373 28.4439 67.7427 27.111C68.4481 25.778 69.4336 24.747 70.6992 24.018C71.9649 23.289 73.4276 22.9246 75.0874 22.9246C76.685 22.9246 78.1114 23.2995 79.3666 24.0493C80.6218 24.7991 81.6004 25.8509 82.3076 27.2047C83.013 28.5585 83.3657 30.0998 83.3657 31.8285V33.1406H71.135C71.1972 34.182 71.5914 35.0256 72.3176 35.6712C73.0437 36.3169 73.9981 36.6397 75.1807 36.6397C76.0107 36.6397 76.7783 36.4592 77.4837 36.093C78.1892 35.7302 78.9568 35.0984 79.7867 34.2028L82.5566 37.0459C81.6022 38.1081 80.5025 38.936 79.2577 39.5296C78.0128 40.1232 76.6538 40.42 75.1807 40.42C73.5002 40.42 72.0167 40.0555 70.7304 39.3265C69.444 38.5975 68.4481 37.5718 67.7427 36.2492C67.0373 34.9266 66.6846 33.4114 66.6846 31.7035ZM78.8842 29.8915C78.8012 28.9751 78.4018 28.2148 77.686 27.6108C76.9702 27.0068 76.104 26.7048 75.0874 26.7048C74.0293 26.7048 73.1578 26.9964 72.4732 27.5796C71.7885 28.1628 71.3632 28.9334 71.1972 29.8915H78.8842Z" fill="#36364C"/>
<path d="M96.9034 27.3921V34.0466C96.9034 34.609 97.0331 35.0151 97.2924 35.2651C97.5518 35.515 97.9823 35.64 98.584 35.64H102.35V39.9513H98.1794C96.3536 39.9513 94.9428 39.5192 93.9469 38.6548C92.951 37.7904 92.453 36.5564 92.453 34.9526V27.3921H88.4072V23.3932H92.453V19.1755H96.9034V23.3932H103.377V27.3921H96.9034Z" fill="#36364C"/>
<path d="M109.041 17.1448H113.491V24.924H113.554C114.716 23.591 116.303 22.9245 118.315 22.9245C119.519 22.9245 120.587 23.2161 121.521 23.7993C122.454 24.3825 123.179 25.2052 123.699 26.2674C124.218 27.3296 124.477 28.5584 124.477 29.9539V39.9513H120.027V30.5475C120.027 29.4436 119.747 28.5793 119.187 27.9544C118.626 27.3296 117.859 27.0172 116.884 27.0172C115.826 27.0172 114.996 27.3244 114.394 27.9388C113.792 28.5532 113.491 29.402 113.491 30.485V39.9513H109.041V17.1448Z" fill="#36364C"/>
<path d="M129.052 31.7035C129.052 29.9748 129.404 28.4439 130.11 27.111C130.815 25.778 131.801 24.747 133.066 24.018C134.332 23.289 135.795 22.9246 137.455 22.9246C139.052 22.9246 140.479 23.2995 141.734 24.0493C142.989 24.7991 143.968 25.8509 144.675 27.2047C145.38 28.5585 145.733 30.0998 145.733 31.8285V33.1406H133.502C133.564 34.182 133.959 35.0256 134.685 35.6712C135.411 36.3169 136.365 36.6397 137.548 36.6397C138.378 36.6397 139.146 36.4592 139.851 36.093C140.556 35.7302 141.324 35.0984 142.154 34.2028L144.924 37.0459C143.969 38.1081 142.87 38.936 141.625 39.5296C140.38 40.1232 139.021 40.42 137.548 40.42C135.867 40.42 134.384 40.0555 133.098 39.3265C131.811 38.5975 130.815 37.5718 130.11 36.2492C129.404 34.9266 129.052 33.4114 129.052 31.7035ZM141.251 29.8915C141.168 28.9751 140.769 28.2148 140.053 27.6108C139.337 27.0068 138.471 26.7048 137.455 26.7048C136.396 26.7048 135.525 26.9964 134.84 27.5796C134.156 28.1628 133.73 28.9334 133.564 29.8915H141.251Z" fill="#36364C"/>
<path d="M151.833 23.3932H156.097V24.924H156.159C156.863 24.2159 157.594 23.7056 158.353 23.3932C159.112 23.0808 159.976 22.9246 160.952 22.9246C162.383 22.9246 163.618 23.3463 164.657 24.1899C165.694 25.0334 166.42 26.1841 166.835 27.6421L162.665 29.0167C162.188 27.6629 161.202 26.986 159.708 26.986C158.588 26.986 157.736 27.314 157.157 27.9701C156.574 28.6262 156.283 29.527 156.283 30.6725V39.9513H151.835L151.833 23.3932Z" fill="#36364C"/>
<path d="M170.631 31.7035C170.631 29.9748 170.984 28.4439 171.687 27.111C172.393 25.778 173.38 24.747 174.644 24.018C175.909 23.289 177.372 22.9246 179.032 22.9246C180.63 22.9246 182.056 23.2995 183.313 24.0493C184.568 24.7991 185.548 25.8509 186.254 27.2047C186.958 28.5585 187.31 30.0998 187.31 31.8285V33.1406H175.081C175.142 34.182 175.538 35.0256 176.264 35.6712C176.99 36.3169 177.944 36.6397 179.127 36.6397C179.955 36.6397 180.725 36.4592 181.43 36.093C182.134 35.7302 182.903 35.0984 183.733 34.2028L186.503 37.0459C185.548 38.1081 184.449 38.936 183.204 39.5296C181.959 40.1232 180.6 40.42 179.129 40.42C177.446 40.42 175.965 40.0555 174.678 39.3265C173.392 38.5975 172.396 37.5718 171.689 36.2492C170.985 34.9266 170.631 33.4114 170.631 31.7035ZM182.829 29.8915C182.746 28.9751 182.346 28.2148 181.631 27.6108C180.917 27.0068 180.049 26.7048 179.032 26.7048C177.976 26.7048 177.104 26.9964 176.418 27.5796C175.733 28.1628 175.308 28.9334 175.142 29.8915H182.829Z" fill="#36364C"/>
<path d="M192.352 34.3277V23.3931H196.8V33.2967C196.8 35.317 197.796 36.3272 199.79 36.3272C200.682 36.3272 201.392 36.0512 201.921 35.4993C202.451 34.9473 202.715 34.2131 202.715 33.2967V23.3931H207.164V39.9512H202.9V38.4829H202.838C202.381 39.066 201.754 39.5347 200.955 39.8887C200.156 40.2428 199.321 40.4198 198.45 40.4198C196.499 40.4198 194.995 39.8835 193.939 38.8109C192.881 37.7383 192.352 36.2439 192.352 34.3277Z" fill="#36364C"/>
<path d="M211.74 23.3932H215.663V24.8304H215.725C216.076 24.268 216.529 23.8358 217.077 23.5338C217.627 23.2318 218.234 23.0808 218.899 23.0808C220.207 23.0808 221.253 23.6952 222.041 24.9241H222.103C222.931 23.6952 224.074 23.0808 225.527 23.0808C226.728 23.0808 227.705 23.5078 228.45 24.3617C229.199 25.2157 229.571 26.33 229.571 27.7046V39.9514H225.463V28.4856C225.463 28.0066 225.338 27.6421 225.089 27.3922C224.838 27.1422 224.486 27.0173 224.031 27.0173C223.595 27.0173 223.248 27.1579 222.987 27.439C222.729 27.7202 222.598 28.1003 222.598 28.5794V39.9514H218.708V28.4856C218.708 28.0274 218.588 27.6681 218.35 27.4078C218.111 27.1475 217.774 27.0173 217.338 27.0173C216.882 27.0173 216.517 27.1579 216.249 27.439C215.979 27.7202 215.844 28.1003 215.844 28.5794V39.9514H211.736V23.3932H211.74Z" fill="#36364C"/>
<path d="M71.6637 62.2112H67.3066V58.2122H71.6637V55.7754C71.6637 54.3174 72.146 53.1667 73.1108 52.3232C74.0756 51.4814 75.4086 51.0579 77.1099 51.0579H81.9026V55.0256H77.639C77.2033 55.0256 76.8713 55.1384 76.6431 55.3675C76.4149 55.5983 76.3008 55.9194 76.3008 56.3377V58.2122H82.8985V62.2112H76.3008V72.9271H71.6637V62.2112Z" fill="#36364C"/>
<path d="M87.4736 64.6496C87.4736 62.9417 87.8263 61.4264 88.5318 60.1039C89.2372 58.7813 90.2279 57.7503 91.5039 57.0109C92.7799 56.2716 94.2374 55.9019 95.8764 55.9019C97.5363 55.9019 99.0042 56.2716 100.28 57.0109C101.556 57.7503 102.547 58.783 103.252 60.1039C103.958 61.4264 104.31 62.9417 104.31 64.6496C104.31 66.3574 103.958 67.8709 103.252 69.1952C102.547 70.5178 101.556 71.5471 100.28 72.2864C99.0042 73.0258 97.5363 73.3955 95.8764 73.3955C94.2374 73.3955 92.7799 73.0258 91.5039 72.2864C90.2279 71.5471 89.2372 70.5161 88.5318 69.1952C87.8263 67.8709 87.4736 66.3557 87.4736 64.6496ZM99.86 64.6496C99.86 63.1916 99.5125 62.0513 98.8174 61.2268C98.1224 60.4041 97.1421 59.9928 95.8764 59.9928C94.6316 59.9928 93.6616 60.4041 92.9666 61.2268C92.2715 62.0513 91.924 63.1916 91.924 64.6496C91.924 66.1075 92.2715 67.2478 92.9666 68.0705C93.6616 68.895 94.6316 69.3046 95.8764 69.3046C97.1213 69.3046 98.0964 68.888 98.8019 68.0549C99.5073 67.2235 99.86 66.0867 99.86 64.6496Z" fill="#36364C"/>
<path d="M109.196 67.3036V56.3689H113.647V66.2726C113.647 68.2929 114.643 69.303 116.634 69.303C117.526 69.303 118.237 69.0271 118.766 68.4751C119.295 67.9232 119.56 67.189 119.56 66.2708V56.3672H124.01V72.9253H119.746V71.457H119.684C119.228 72.0402 118.6 72.507 117.801 72.8629C117.003 73.2187 116.168 73.394 115.296 73.394C113.346 73.394 111.842 72.8577 110.783 71.785C109.725 70.7124 109.196 69.2197 109.196 67.3036Z" fill="#36364C"/>
<path d="M129.83 56.3688H134.28V57.9309H134.343C135.007 57.2644 135.722 56.7593 136.49 56.4156C137.258 56.072 138.129 55.9001 139.104 55.9001C140.183 55.9001 141.189 56.1535 142.123 56.6638C143.057 57.1759 143.814 57.9552 144.395 59.0087C144.976 60.0588 145.266 61.3657 145.266 62.9296V72.9269H140.816V63.5231C140.816 62.4627 140.546 61.607 140.007 60.9613C139.467 60.3157 138.689 59.9911 137.673 59.9911C136.615 59.9911 135.785 60.3 135.183 60.9127C134.581 61.5271 134.28 62.3776 134.28 63.4589V72.9252H129.83V56.3688Z" fill="#36364C"/>
<path d="M149.497 64.6498C149.497 62.9835 149.82 61.4839 150.463 60.1509C151.105 58.8162 152.009 57.7766 153.169 57.025C154.331 56.2752 155.649 55.902 157.122 55.902C158.989 55.902 160.452 56.4019 161.51 57.4017H161.572V50.1223H166.021V72.9288H161.914V71.4917H161.852C160.628 72.7622 159.029 73.3975 157.059 73.3975C155.607 73.3975 154.305 73.033 153.154 72.304C152.002 71.575 151.103 70.5492 150.462 69.2284C149.818 67.9058 149.495 66.3802 149.495 64.6515L149.497 64.6498ZM161.574 65.7102V63.5563C161.574 62.9315 161.406 62.3483 161.076 61.805C160.744 61.2635 160.282 60.8278 159.691 60.4929C159.1 60.1613 158.439 59.993 157.713 59.993C156.551 59.993 155.633 60.4148 154.959 61.2583C154.284 62.1018 153.947 63.2317 153.947 64.648C153.947 66.0435 154.29 67.1682 154.974 68.0204C155.659 68.8743 156.561 69.3013 157.682 69.3013C158.802 69.3013 159.731 68.9524 160.467 68.2547C161.204 67.557 161.572 66.7065 161.572 65.7068L161.574 65.7102Z" fill="#36364C"/>
<path d="M171.657 68.4923C171.657 66.9511 172.181 65.7535 173.229 64.8995C174.275 64.0473 176.025 63.4207 178.473 63.025C179.758 62.8185 180.636 62.5824 181.103 62.3238C181.571 62.0635 181.803 61.7129 181.803 61.2755C181.803 60.7756 181.573 60.3799 181.118 60.0883C180.664 59.7967 180.04 59.6509 179.251 59.6509C178.359 59.6509 177.586 59.9199 176.933 60.4632C176.279 61.0064 175.859 61.7233 175.672 62.6189L171.531 61.6816C171.739 60.5569 172.206 59.5554 172.933 58.6807C173.66 57.8059 174.571 57.1255 175.672 56.6343C176.772 56.1449 177.963 55.9001 179.249 55.9001C181.367 55.9001 183.057 56.4937 184.324 57.6792C185.588 58.8681 186.222 60.451 186.222 62.4279V72.9252H182.239V71.0819H182.177C181.699 71.8109 181.03 72.3767 180.169 72.7829C179.308 73.189 178.338 73.3921 177.259 73.3921C176.18 73.3921 175.214 73.1855 174.365 72.769C173.514 72.3524 172.849 71.7692 172.373 71.0194C171.896 70.2679 171.657 69.4261 171.657 68.4889V68.4923ZM181.988 66.7723V64.8978H181.928C181.741 65.2119 181.43 65.4601 180.994 65.6493C180.558 65.835 179.874 66.0242 178.94 66.2099C177.778 66.4616 176.979 66.7254 176.544 67.0066C176.108 67.2878 175.89 67.68 175.89 68.1799C175.89 68.6572 176.08 69.0217 176.466 69.2734C176.85 69.5233 177.405 69.6483 178.131 69.6483C178.795 69.6483 179.427 69.5181 180.029 69.256C180.631 68.9939 181.108 68.6416 181.461 68.1955C181.813 67.7495 181.99 67.2739 181.99 66.774L181.988 66.7723Z" fill="#36364C"/>
<path d="M200.848 60.3695V67.024C200.848 67.5846 200.976 67.9925 201.237 68.2407C201.496 68.4923 201.925 68.6173 202.529 68.6173H206.294V72.9269H202.124C200.298 72.9269 198.887 72.4947 197.893 71.6304C196.897 70.766 196.399 69.532 196.399 67.9282V60.3695H192.354V56.3688H196.399V52.1511H200.85V56.3688H207.323V60.3695H200.848Z" fill="#36364C"/>
<path d="M228.733 68.836V72.9269H212.519V68.836H218.401V60.4632H212.828V56.3705H222.851V68.8377H228.731L228.733 68.836ZM218.307 49.3723H222.882V53.7757H218.307V49.3723Z" fill="#36364C"/>
<path d="M232.996 64.6496C232.996 62.9417 233.349 61.4264 234.053 60.1039C234.758 58.7813 235.749 57.7503 237.026 57.0109C238.301 56.2716 239.76 55.9019 241.397 55.9019C243.057 55.9019 244.527 56.2716 245.803 57.0109C247.077 57.7503 248.069 58.783 248.775 60.1039C249.478 61.4264 249.831 62.9417 249.831 64.6496C249.831 66.3574 249.478 67.8709 248.775 69.1952C248.069 70.5178 247.079 71.5471 245.803 72.2864C244.527 73.0258 243.057 73.3955 241.397 73.3955C239.76 73.3955 238.301 73.0258 237.026 72.2864C235.75 71.5471 234.758 70.5161 234.053 69.1952C233.349 67.8709 232.996 66.3557 232.996 64.6496ZM245.382 64.6496C245.382 63.1916 245.035 62.0513 244.338 61.2268C243.643 60.4041 242.663 59.9928 241.397 59.9928C240.152 59.9928 239.184 60.4041 238.487 61.2268C237.792 62.0513 237.445 63.1916 237.445 64.6496C237.445 66.1075 237.791 67.2478 238.487 68.0705C239.182 68.895 240.152 69.3046 241.397 69.3046C242.642 69.3046 243.617 68.888 244.323 68.0549C245.028 67.2218 245.382 66.0867 245.382 64.6496Z" fill="#36364C"/>
<path d="M254.565 56.3688H259.014V57.9309H259.076C259.74 57.2644 260.456 56.7593 261.224 56.4156C261.99 56.072 262.863 55.9001 263.838 55.9001C264.917 55.9001 265.923 56.1535 266.857 56.6638C267.79 57.1759 268.549 57.9552 269.129 59.0087C269.71 60.0588 270 61.3657 270 62.9296V72.9269H265.55V63.5231C265.55 62.4627 265.28 61.607 264.74 60.9613C264.201 60.3157 263.421 59.9911 262.405 59.9911C261.348 59.9911 260.517 60.3 259.917 60.9127C259.313 61.5271 259.014 62.3776 259.014 63.4589V72.9252H254.565V56.3688Z" fill="#36364C"/>
<path d="M25.1773 65.1773V85.9999L0 49.0808L25.1773 65.1773Z" fill="#0DAFD2"/>
<path d="M50.3568 49.0808L25.1777 85.9999V65.1773L50.3568 49.0808Z" fill="#667BBC"/>
<path d="M50.3568 43.8792L25.1777 29.5166V59.9774L50.3568 43.8792Z" fill="#9E69AC"/>
<path d="M50.3568 43.8791L25.1777 0V29.5166L50.3568 43.8791Z" fill="#F58B77"/>
<path d="M25.1773 0V29.5166L0 43.8791L25.1773 0Z" fill="#F9EC7B"/>
<path d="M25.1773 29.5166V59.9774L0 43.8792L25.1773 29.5166Z" fill="#54BC7A"/>
</g>
<defs>
<clipPath id="clip0_528_33834">
<rect width="270" height="86" fill="white"/>
</clipPath>
</defs>
</svg>
