<svg width="308" height="61" viewBox="0 0 308 61" fill="none" xmlns="http://www.w3.org/2000/svg">
<path d="M30.3372 30.7214V60.4633H0.595288L30.3372 30.7214Z" fill="#5DCA47"/>
<path d="M60.0791 30.7214V0.979492H89.821L74.95 15.8504L60.0791 30.7214Z" fill="#5DCA47"/>
<path d="M30.3372 30.7214L30.337 0.979492H60.0791L30.3372 30.7214Z" fill="#5DCA47"/>
<path d="M0.595215 0.979754L30.337 0.979492L30.3372 30.7214L0.595215 0.979754Z" fill="#5DCA47"/>
<path d="M60.0791 30.7214L60.0789 60.4633H30.3372L60.0791 30.7214Z" fill="#5DCA47"/>
<path d="M89.821 60.4633H60.0789L60.0791 30.7214L89.821 60.4633Z" fill="#5DCA47"/>
<path d="M291.304 54.7634H283.469V12.8046H266.773V5.70166H308V12.8046H291.304V54.7634Z" fill="white"/>
<path d="M263.612 54.7634H255.704V5.70166H263.612V54.7634Z" fill="white"/>
<path d="M219.347 54.7634H211.439V5.70166H219.347V26.6444H230.698L243.585 5.70166H252.592L237.361 30.0128L252.519 54.7634H243.439L230.844 34.26H219.347V54.7634Z" fill="white"/>
<path d="M159.422 54.7634H151.513V5.70166H159.422V26.6444H170.772L183.66 5.70166H192.667L177.436 30.0128L192.593 54.7634H183.513L170.918 34.26H159.422V54.7634Z" fill="white"/>
<path d="M147.318 54.7634H107.263V48.173L135.602 13.3904V12.8046H108.728V5.70166H146.22V12.292L117.808 47.0746V47.6604H147.318V54.7634Z" fill="white"/>
</svg>
