<svg width="308" height="60" viewBox="0 0 308 60" fill="none" xmlns="http://www.w3.org/2000/svg">
<path d="M59.4839 29.7418V-0.00012207H89.2258L59.4839 29.7418Z" fill="#5DCA47"/>
<path d="M29.7419 29.742V59.4835L59.4839 29.7418L59.4836 59.4837L29.7419 59.4835L0 59.4837L29.7419 29.742L0 0.00012207L59.4839 -0.00012207L29.7419 29.742Z" fill="#5DCA47"/>
<path d="M89.2258 59.4837H59.4836L59.4839 29.7418L89.2258 59.4837Z" fill="#5DCA47"/>
<path d="M290.709 53.7838H282.874V11.825H266.178V4.72205H307.405V11.825H290.709V53.7838Z" fill="#0E0E0E"/>
<path d="M263.017 53.7838H255.109V4.72205H263.017V53.7838Z" fill="#0E0E0E"/>
<path d="M218.752 53.7838H210.844V4.72205H218.752V25.6648H230.102L242.99 4.72205H251.997L236.766 29.0332L251.924 53.7838H242.844L230.249 33.2804H218.752V53.7838Z" fill="#0E0E0E"/>
<path d="M158.827 53.7838H150.918V4.72205H158.827V25.6648H170.177L183.065 4.72205H192.071L176.84 29.0332L191.998 53.7838H182.918L170.323 33.2804H158.827V53.7838Z" fill="#0E0E0E"/>
<path d="M146.723 53.7838H106.668V47.1934L135.007 12.4108V11.825H108.133V4.72205H145.625V11.3124L117.213 46.095V46.6808H146.723V53.7838Z" fill="#0E0E0E"/>
</svg>
