<svg width="670" height="224" viewBox="0 0 670 224" fill="none" xmlns="http://www.w3.org/2000/svg">
<path d="M557.909 111.296H502.896L557.909 56.2822V111.296Z" stroke="#5DCA47" stroke-width="0.431252"/>
<path d="M669.104 0.227539L614.091 55.2412V0.227539H669.104Z" stroke="#5DCA47" stroke-width="0.431252"/>
<path d="M613.354 0.227539L558.341 55.2412V0.227539H613.354Z" stroke="#5DCA47" stroke-width="0.431252"/>
<path d="M557.909 0.227539V55.2412L502.896 0.227539H557.909Z" stroke="#5DCA47" stroke-width="0.431252"/>
<path d="M613.659 111.296H558.646L613.659 56.2822V111.296Z" stroke="#5DCA47" stroke-width="0.431252"/>
<path d="M669.104 111.296H614.091V56.2822L669.104 111.296Z" stroke="#5DCA47" stroke-width="0.431252"/>
<path d="M557.909 222.796H502.896L557.909 167.782V222.796Z" stroke="#5DCA47" stroke-width="0.431252"/>
<path d="M669.104 111.728L614.091 166.741V111.728H669.104Z" stroke="#5DCA47" stroke-width="0.431252"/>
<path d="M613.354 111.728L558.341 166.741V111.728H613.354Z" stroke="#5DCA47" stroke-width="0.431252"/>
<path d="M557.909 111.728V166.741L502.896 111.728H557.909Z" stroke="#5DCA47" stroke-width="0.431252"/>
<path d="M613.659 222.796H558.646L613.659 167.782V222.796Z" stroke="#5DCA47" stroke-width="0.431252"/>
<path d="M669.104 222.796H614.091V167.782L669.104 222.796Z" stroke="#5DCA47" stroke-width="0.431252"/>
<path d="M55.9092 111.296H0.895508L55.9092 56.2822V111.296Z" stroke="#5DCA47" stroke-width="0.431252"/>
<path d="M167.104 0.227539L112.091 55.2412V0.227539H167.104Z" stroke="#5DCA47" stroke-width="0.431252"/>
<path d="M111.354 0.227539L56.3408 55.2412V0.227539H111.354Z" stroke="#5DCA47" stroke-width="0.431252"/>
<path d="M55.9092 0.227539V55.2412L0.895508 0.227539H55.9092Z" stroke="#5DCA47" stroke-width="0.431252"/>
<path d="M111.659 111.296H56.6455L111.659 56.2822V111.296Z" stroke="#5DCA47" stroke-width="0.431252"/>
<path d="M167.104 111.296H112.091V56.2822L167.104 111.296Z" stroke="#5DCA47" stroke-width="0.431252"/>
<path d="M55.9092 222.796H0.895508L55.9092 167.782V222.796Z" stroke="#5DCA47" stroke-width="0.431252"/>
<path d="M167.104 111.728L112.091 166.741V111.728H167.104Z" stroke="#5DCA47" stroke-width="0.431252"/>
<path d="M111.354 111.728L56.3408 166.741V111.728H111.354Z" stroke="#5DCA47" stroke-width="0.431252"/>
<path d="M55.9092 111.728V166.741L0.895508 111.728H55.9092Z" stroke="#5DCA47" stroke-width="0.431252"/>
<path d="M111.659 222.796H56.6455L111.659 167.782V222.796Z" stroke="#5DCA47" stroke-width="0.431252"/>
<path d="M167.104 222.796H112.091V167.782L167.104 222.796Z" stroke="#5DCA47" stroke-width="0.431252"/>
<path d="M279.363 111.506V223.012H167.857L279.363 111.506Z" fill="#5DCA47"/>
<path d="M390.869 111.506V0H502.375L390.869 111.506Z" fill="#5DCA47"/>
<path d="M279.363 111.506V111.507L167.857 0.000976562H279.363V0H390.869L279.363 111.506Z" fill="#5DCA47"/>
<path d="M502.375 223.012H279.363L390.869 111.506L502.375 223.012Z" fill="#5DCA47"/>
</svg>
