<svg width="266" height="106" viewBox="0 0 266 106" fill="none" xmlns="http://www.w3.org/2000/svg">
<path d="M19.4096 0.0117187L19.4096 19.1026L0.955078 19.1026L19.4096 0.0117187Z" fill="#2D7520"/>
<path d="M19.4096 57.2842L19.4096 76.3751L0.955078 76.3751L19.4096 57.2842Z" fill="#2D7520"/>
<path d="M149.226 0.0117187L149.226 19.1026L130.771 19.1026L149.226 0.0117187Z" fill="#2D7520"/>
<path d="M149.226 57.2842L149.226 76.3751L130.771 76.3751L149.226 57.2842Z" fill="#2D7520"/>
<path d="M84.3188 0.0117187L84.3188 19.1026L65.8643 19.1026L84.3188 0.0117187Z" fill="#2D7520"/>
<path d="M84.3188 57.2842L84.3188 76.3751L65.8643 76.3751L84.3188 57.2842Z" fill="#2D7520"/>
<path d="M214.136 0.0117187L214.136 19.1026L195.682 19.1026L214.136 0.0117187Z" fill="#2D7520"/>
<path d="M214.136 57.2842L214.136 76.3751L195.682 76.3751L214.136 57.2842Z" fill="#2D7520"/>
<path d="M19.4096 47.7393L19.4096 28.6484L0.955078 28.6484L19.4096 47.7393Z" fill="#5DCA47"/>
<path d="M19.4096 105.012L19.4096 85.9208L0.955078 85.9208L19.4096 105.012Z" fill="#5DCA47"/>
<path d="M149.226 47.7393L149.226 28.6484L130.771 28.6484L149.226 47.7393Z" fill="#5DCA47"/>
<path d="M149.226 105.012L149.226 85.9208L130.771 85.9208L149.226 105.012Z" fill="#5DCA47"/>
<path d="M84.3188 47.7393L84.3188 28.6484L65.8643 28.6484L84.3188 47.7393Z" fill="#5DCA47"/>
<path d="M84.3188 105.012L84.3188 85.9208L65.8643 85.9208L84.3188 105.012Z" fill="#5DCA47"/>
<path d="M214.136 47.7393L214.136 28.6484L195.682 28.6484L214.136 47.7393Z" fill="#5DCA47"/>
<path d="M214.136 105.012L214.136 85.9208L195.682 85.9208L214.136 105.012Z" fill="#5DCA47"/>
<path d="M51.8638 19.1025L51.8638 0.0116536L70.3184 0.011652L51.8638 19.1025Z" fill="#5DCA47"/>
<path d="M51.8638 76.375L51.8638 57.2841L70.3184 57.2841L51.8638 76.375Z" fill="#5DCA47"/>
<path d="M181.681 19.1025L181.681 0.0116536L200.136 0.011652L181.681 19.1025Z" fill="#5DCA47"/>
<path d="M181.681 76.375L181.681 57.2841L200.136 57.2841L181.681 76.375Z" fill="#5DCA47"/>
<path d="M116.774 19.1025L116.774 0.0116536L135.229 0.011652L116.774 19.1025Z" fill="#5DCA47"/>
<path d="M116.774 76.375L116.774 57.2841L135.229 57.2841L116.774 76.375Z" fill="#5DCA47"/>
<path d="M246.59 19.1025L246.59 0.0116536L265.045 0.011652L246.59 19.1025Z" fill="#5DCA47"/>
<path d="M246.59 76.375L246.59 57.2841L265.045 57.2841L246.59 76.375Z" fill="#5DCA47"/>
<path d="M51.8638 28.6484L51.8638 47.7393L70.3184 47.7393L51.8638 28.6484Z" fill="#2D7520"/>
<path d="M51.8638 85.9209L51.8638 105.012L70.3184 105.012L51.8638 85.9209Z" fill="#2D7520"/>
<path d="M181.681 28.6484L181.681 47.7393L200.136 47.7393L181.681 28.6484Z" fill="#2D7520"/>
<path d="M181.681 85.9209L181.681 105.012L200.136 105.012L181.681 85.9209Z" fill="#2D7520"/>
<path d="M116.774 28.6484L116.774 47.7393L135.229 47.7393L116.774 28.6484Z" fill="#2D7520"/>
<path d="M116.774 85.9209L116.774 105.012L135.229 105.012L116.774 85.9209Z" fill="#2D7520"/>
<path d="M246.59 28.6484L246.59 47.7393L265.045 47.7393L246.59 28.6484Z" fill="#2D7520"/>
<path d="M246.59 85.9209L246.59 105.012L265.045 105.012L246.59 85.9209Z" fill="#2D7520"/>
<path d="M37.8637 19.1026L19.4092 19.1026L19.4092 0.0117188L37.8637 19.1026Z" fill="#2D7520"/>
<path d="M37.8637 76.3751L19.4092 76.3751L19.4092 57.2842L37.8637 76.3751Z" fill="#2D7520"/>
<path d="M167.681 19.1026L149.227 19.1026L149.227 0.0117188L167.681 19.1026Z" fill="#2D7520"/>
<path d="M167.681 76.3751L149.227 76.3751L149.227 57.2842L167.681 76.3751Z" fill="#2D7520"/>
<path d="M102.773 19.1026L84.3184 19.1026L84.3184 0.0117188L102.773 19.1026Z" fill="#2D7520"/>
<path d="M102.773 76.3751L84.3184 76.3751L84.3184 57.2842L102.773 76.3751Z" fill="#2D7520"/>
<path d="M232.591 19.1026L214.137 19.1026L214.137 0.0117188L232.591 19.1026Z" fill="#2D7520"/>
<path d="M232.591 76.3751L214.137 76.3751L214.137 57.2842L232.591 76.3751Z" fill="#2D7520"/>
<path d="M37.8637 28.6484L19.4092 28.6484L19.4092 47.7393L37.8637 28.6484Z" fill="#5DCA47"/>
<path d="M37.8637 85.9208L19.4092 85.9208L19.4092 105.012L37.8637 85.9208Z" fill="#5DCA47"/>
<path d="M167.681 28.6484L149.227 28.6484L149.227 47.7393L167.681 28.6484Z" fill="#5DCA47"/>
<path d="M167.681 85.9208L149.227 85.9208L149.227 105.012L167.681 85.9208Z" fill="#5DCA47"/>
<path d="M102.773 28.6484L84.3184 28.6484L84.3184 47.7393L102.773 28.6484Z" fill="#5DCA47"/>
<path d="M102.773 85.9208L84.3184 85.9208L84.3184 105.012L102.773 85.9208Z" fill="#5DCA47"/>
<path d="M232.591 28.6484L214.137 28.6484L214.137 47.7393L232.591 28.6484Z" fill="#5DCA47"/>
<path d="M232.591 85.9208L214.137 85.9208L214.137 105.012L232.591 85.9208Z" fill="#5DCA47"/>
<path d="M33.4088 0.0116536L51.8633 0.011652L51.8633 19.1025L33.4088 0.0116536Z" fill="#5DCA47"/>
<path d="M33.4088 57.2841L51.8633 57.2841L51.8633 76.375L33.4088 57.2841Z" fill="#5DCA47"/>
<path d="M163.227 0.0116536L181.682 0.011652L181.682 19.1025L163.227 0.0116536Z" fill="#5DCA47"/>
<path d="M163.227 57.2841L181.682 57.2841L181.682 76.375L163.227 57.2841Z" fill="#5DCA47"/>
<path d="M98.3189 0.0116536L116.773 0.011652L116.773 19.1025L98.3189 0.0116536Z" fill="#5DCA47"/>
<path d="M98.3189 57.2841L116.773 57.2841L116.773 76.375L98.3189 57.2841Z" fill="#5DCA47"/>
<path d="M228.136 0.0116536L246.591 0.011652L246.591 19.1025L228.136 0.0116536Z" fill="#5DCA47"/>
<path d="M228.136 57.2841L246.591 57.2841L246.591 76.375L228.136 57.2841Z" fill="#5DCA47"/>
<path d="M33.4088 47.7393L51.8633 47.7393L51.8633 28.6484L33.4088 47.7393Z" fill="#2D7520"/>
<path d="M33.4088 105.012L51.8633 105.012L51.8633 85.9209L33.4088 105.012Z" fill="#2D7520"/>
<path d="M163.227 47.7393L181.682 47.7393L181.682 28.6484L163.227 47.7393Z" fill="#2D7520"/>
<path d="M163.227 105.012L181.682 105.012L181.682 85.9209L163.227 105.012Z" fill="#2D7520"/>
<path d="M98.3189 47.7393L116.773 47.7393L116.773 28.6484L98.3189 47.7393Z" fill="#2D7520"/>
<path d="M98.3189 105.012L116.773 105.012L116.773 85.9209L98.3189 105.012Z" fill="#2D7520"/>
<path d="M228.136 47.7393L246.591 47.7393L246.591 28.6484L228.136 47.7393Z" fill="#2D7520"/>
<path d="M228.136 105.012L246.591 105.012L246.591 85.9209L228.136 105.012Z" fill="#2D7520"/>
</svg>
