<svg width="1288" height="215" viewBox="0 0 1288 215" fill="none" xmlns="http://www.w3.org/2000/svg">
<path d="M143.479 35.7236V71.4471H107.756L143.479 35.7236Z" fill="#5DCA47"/>
<path d="M179.203 35.7235V-6.10352e-05H214.927L179.203 35.7235Z" fill="#5DCA47"/>
<path d="M143.48 35.7235V-6.10352e-05H179.204L143.48 35.7235Z" fill="#5DCA47"/>
<path d="M107.756 0.000274658H143.479V35.7238L107.756 0.000274658Z" fill="#5DCA47"/>
<path d="M179.204 35.7236V71.4471H143.48L179.204 35.7236Z" fill="#5DCA47"/>
<path d="M214.927 71.4471H179.203V35.7236L214.927 71.4471Z" fill="#5DCA47"/>
<path d="M787.479 35.7236V71.4471H751.756L787.479 35.7236Z" fill="#5DCA47"/>
<path d="M823.203 35.7235V-6.10352e-05H858.927L823.203 35.7235Z" fill="#5DCA47"/>
<path d="M787.48 35.7235V-6.10352e-05H823.204L787.48 35.7235Z" fill="#5DCA47"/>
<path d="M751.756 0.000274658H787.479V35.7238L751.756 0.000274658Z" fill="#5DCA47"/>
<path d="M823.204 35.7236V71.4471H787.48L823.204 35.7236Z" fill="#5DCA47"/>
<path d="M858.927 71.4471H823.203V35.7236L858.927 71.4471Z" fill="#5DCA47"/>
<path d="M465.186 107.171V142.894H429.463L465.186 107.171Z" fill="#5DCA47"/>
<path d="M500.91 107.171V71.4471H536.634L500.91 107.171Z" fill="#5DCA47"/>
<path d="M465.188 107.171V71.4471H500.911L465.188 107.171Z" fill="#5DCA47"/>
<path d="M429.463 71.4473H465.186V107.171L429.463 71.4473Z" fill="#5DCA47"/>
<path d="M500.911 107.171V142.894H465.188L500.911 107.171Z" fill="#5DCA47"/>
<path d="M536.634 142.894H500.91V107.171L536.634 142.894Z" fill="#5DCA47"/>
<path d="M1109.18 107.171V142.894H1073.46L1109.18 107.171Z" fill="#5DCA47"/>
<path d="M1144.91 107.171V71.4471H1180.63L1144.91 107.171Z" fill="#5DCA47"/>
<path d="M1109.19 107.171V71.4471H1144.91L1109.19 107.171Z" fill="#5DCA47"/>
<path d="M1073.46 71.4474H1109.18V107.171L1073.46 71.4474Z" fill="#5DCA47"/>
<path d="M1144.91 107.171V142.894H1109.19L1144.91 107.171Z" fill="#5DCA47"/>
<path d="M1180.63 142.894H1144.91V107.171L1180.63 142.894Z" fill="#5DCA47"/>
<path d="M250.629 71.2314H215.642L250.629 36.2441V71.2314Z" stroke="#5DCA47" stroke-width="0.431252"/>
<path d="M321.771 0.215759L286.784 35.2031V0.215759H321.771Z" stroke="#5DCA47" stroke-width="0.431252"/>
<path d="M286.049 0.215759L251.062 35.2031V0.215759H286.049Z" stroke="#5DCA47" stroke-width="0.431252"/>
<path d="M250.629 0.216034V35.2033L215.642 0.216034H250.629Z" stroke="#5DCA47" stroke-width="0.431252"/>
<path d="M286.354 71.2314H251.366L286.354 36.2441V71.2314Z" stroke="#5DCA47" stroke-width="0.431252"/>
<path d="M321.771 71.2314H286.784V36.2441L321.771 71.2314Z" stroke="#5DCA47" stroke-width="0.431252"/>
<path d="M894.631 71.2314H859.644L894.631 36.2441V71.2314Z" stroke="#5DCA47" stroke-width="0.431252"/>
<path d="M965.773 0.215759L930.786 35.2031V0.215759H965.773Z" stroke="#5DCA47" stroke-width="0.431252"/>
<path d="M930.049 0.215759L895.062 35.2031V0.215759H930.049Z" stroke="#5DCA47" stroke-width="0.431252"/>
<path d="M894.631 0.216034V35.2033L859.644 0.216034H894.631Z" stroke="#5DCA47" stroke-width="0.431252"/>
<path d="M930.354 71.2314H895.366L930.354 36.2441V71.2314Z" stroke="#5DCA47" stroke-width="0.431252"/>
<path d="M965.773 71.2314H930.786V36.2441L965.773 71.2314Z" stroke="#5DCA47" stroke-width="0.431252"/>
<path d="M572.338 142.679H537.351L572.338 107.691V142.679Z" stroke="#5DCA47" stroke-width="0.431252"/>
<path d="M643.48 71.6629L608.493 106.65V71.6629H643.48Z" stroke="#5DCA47" stroke-width="0.431252"/>
<path d="M607.756 71.6629L572.769 106.65V71.6629H607.756Z" stroke="#5DCA47" stroke-width="0.431252"/>
<path d="M572.338 71.6632V106.65L537.351 71.6632H572.338Z" stroke="#5DCA47" stroke-width="0.431252"/>
<path d="M608.061 142.679H573.073L608.061 107.691V142.679Z" stroke="#5DCA47" stroke-width="0.431252"/>
<path d="M643.48 142.679H608.493V107.691L643.48 142.679Z" stroke="#5DCA47" stroke-width="0.431252"/>
<path d="M1216.34 142.679H1181.35L1216.34 107.691V142.679Z" stroke="#5DCA47" stroke-width="0.431252"/>
<path d="M1287.48 71.6629L1252.49 106.65V71.6629H1287.48Z" stroke="#5DCA47" stroke-width="0.431252"/>
<path d="M1251.76 71.6629L1216.77 106.65V71.6629H1251.76Z" stroke="#5DCA47" stroke-width="0.431252"/>
<path d="M1216.34 71.6632V106.65L1181.35 71.6632H1216.34Z" stroke="#5DCA47" stroke-width="0.431252"/>
<path d="M1252.06 142.679H1217.07L1252.06 107.691V142.679Z" stroke="#5DCA47" stroke-width="0.431252"/>
<path d="M1287.48 142.679H1252.49V107.691L1287.48 142.679Z" stroke="#5DCA47" stroke-width="0.431252"/>
<path d="M464.971 71.2314H429.983L464.971 36.2441V71.2314Z" stroke="#5DCA47" stroke-width="0.431252"/>
<path d="M536.113 0.215759L501.126 35.2031V0.215759H536.113Z" stroke="#5DCA47" stroke-width="0.431252"/>
<path d="M500.391 0.215759L465.403 35.2031V0.215759H500.391Z" stroke="#5DCA47" stroke-width="0.431252"/>
<path d="M464.971 0.216095V35.2034L429.983 0.216095H464.971Z" stroke="#5DCA47" stroke-width="0.431252"/>
<path d="M500.695 71.2314H465.708L500.695 36.2441V71.2314Z" stroke="#5DCA47" stroke-width="0.431252"/>
<path d="M536.113 71.2314H501.126V36.2441L536.113 71.2314Z" stroke="#5DCA47" stroke-width="0.431252"/>
<path d="M1108.97 71.2314H1073.98L1108.97 36.2441V71.2314Z" stroke="#5DCA47" stroke-width="0.431252"/>
<path d="M1180.11 0.215759L1145.12 35.2031V0.215759H1180.11Z" stroke="#5DCA47" stroke-width="0.431252"/>
<path d="M1144.39 0.215759L1109.4 35.2031V0.215759H1144.39Z" stroke="#5DCA47" stroke-width="0.431252"/>
<path d="M1108.97 0.216034V35.2033L1073.98 0.216034H1108.97Z" stroke="#5DCA47" stroke-width="0.431252"/>
<path d="M1144.69 71.2314H1109.71L1144.69 36.2441V71.2314Z" stroke="#5DCA47" stroke-width="0.431252"/>
<path d="M1180.11 71.2314H1145.12V36.2441L1180.11 71.2314Z" stroke="#5DCA47" stroke-width="0.431252"/>
<path d="M250.629 214.126H215.642L250.629 179.138V214.126Z" stroke="#5DCA47" stroke-width="0.431252"/>
<path d="M321.771 143.11L286.784 178.097V143.11H321.771Z" stroke="#5DCA47" stroke-width="0.431252"/>
<path d="M286.049 143.11L251.062 178.097V143.11H286.049Z" stroke="#5DCA47" stroke-width="0.431252"/>
<path d="M250.629 143.11V178.098L215.642 143.11H250.629Z" stroke="#5DCA47" stroke-width="0.431252"/>
<path d="M286.354 214.126H251.366L286.354 179.138V214.126Z" stroke="#5DCA47" stroke-width="0.431252"/>
<path d="M321.771 214.126H286.784V179.138L321.771 214.126Z" stroke="#5DCA47" stroke-width="0.431252"/>
<path d="M894.631 214.126H859.644L894.631 179.138V214.126Z" stroke="#5DCA47" stroke-width="0.431252"/>
<path d="M965.773 143.11L930.786 178.097V143.11H965.773Z" stroke="#5DCA47" stroke-width="0.431252"/>
<path d="M930.049 143.11L895.062 178.097V143.11H930.049Z" stroke="#5DCA47" stroke-width="0.431252"/>
<path d="M894.631 143.11V178.098L859.644 143.11H894.631Z" stroke="#5DCA47" stroke-width="0.431252"/>
<path d="M930.354 214.126H895.366L930.354 179.138V214.126Z" stroke="#5DCA47" stroke-width="0.431252"/>
<path d="M965.773 214.126H930.786V179.138L965.773 214.126Z" stroke="#5DCA47" stroke-width="0.431252"/>
<path d="M465.361 214.126H430.374L465.361 179.138V214.126Z" stroke="#5DCA47" stroke-width="0.431252"/>
<path d="M536.504 143.11L501.517 178.097V143.11H536.504Z" stroke="#5DCA47" stroke-width="0.431252"/>
<path d="M500.779 143.11L465.792 178.097V143.11H500.779Z" stroke="#5DCA47" stroke-width="0.431252"/>
<path d="M465.361 143.11V178.098L430.374 143.11H465.361Z" stroke="#5DCA47" stroke-width="0.431252"/>
<path d="M501.084 214.126H466.097L501.084 179.138V214.126Z" stroke="#5DCA47" stroke-width="0.431252"/>
<path d="M536.504 214.126H501.517V179.138L536.504 214.126Z" stroke="#5DCA47" stroke-width="0.431252"/>
<path d="M1109.36 214.126H1074.37L1109.36 179.138V214.126Z" stroke="#5DCA47" stroke-width="0.431252"/>
<path d="M1180.5 143.11L1145.52 178.097V143.11H1180.5Z" stroke="#5DCA47" stroke-width="0.431252"/>
<path d="M1144.78 143.11L1109.79 178.097V143.11H1144.78Z" stroke="#5DCA47" stroke-width="0.431252"/>
<path d="M1109.36 143.11V178.098L1074.37 143.11H1109.36Z" stroke="#5DCA47" stroke-width="0.431252"/>
<path d="M1145.08 214.126H1110.1L1145.08 179.138V214.126Z" stroke="#5DCA47" stroke-width="0.431252"/>
<path d="M1180.5 214.126H1145.52V179.138L1180.5 214.126Z" stroke="#5DCA47" stroke-width="0.431252"/>
<path d="M357.821 35.7236V71.4471H322.098L357.821 35.7236Z" fill="#5DCA47"/>
<path d="M393.545 35.7235V-6.10352e-05H429.268L393.545 35.7235Z" fill="#5DCA47"/>
<path d="M357.822 35.7235V-6.10352e-05H393.546L357.822 35.7235Z" fill="#5DCA47"/>
<path d="M322.098 0.000213623H357.821V35.7237L322.098 0.000213623Z" fill="#5DCA47"/>
<path d="M393.546 35.7236V71.4471H357.822L393.546 35.7236Z" fill="#5DCA47"/>
<path d="M429.268 71.4471H393.545V35.7236L429.268 71.4471Z" fill="#5DCA47"/>
<path d="M1001.82 35.7236V71.4471H966.098L1001.82 35.7236Z" fill="#5DCA47"/>
<path d="M1037.54 35.7235V-6.10352e-05H1073.27L1037.54 35.7235Z" fill="#5DCA47"/>
<path d="M1001.82 35.7235V-6.10352e-05H1037.55L1001.82 35.7235Z" fill="#5DCA47"/>
<path d="M966.098 0.000213623H1001.82V35.7237L966.098 0.000213623Z" fill="#5DCA47"/>
<path d="M1037.55 35.7236V71.4471H1001.82L1037.55 35.7236Z" fill="#5DCA47"/>
<path d="M1073.27 71.4471H1037.54V35.7236L1073.27 71.4471Z" fill="#5DCA47"/>
<path d="M143.479 178.618V214.341H107.756L143.479 178.618Z" fill="#5DCA47"/>
<path d="M179.203 178.618V142.894H214.927L179.203 178.618Z" fill="#5DCA47"/>
<path d="M143.48 178.618V142.894H179.204L143.48 178.618Z" fill="#5DCA47"/>
<path d="M107.756 142.895H143.479V178.618L107.756 142.895Z" fill="#5DCA47"/>
<path d="M179.204 178.618V214.341H143.48L179.204 178.618Z" fill="#5DCA47"/>
<path d="M214.927 214.341H179.203V178.618L214.927 214.341Z" fill="#5DCA47"/>
<path d="M787.479 178.618V214.341H751.756L787.479 178.618Z" fill="#5DCA47"/>
<path d="M823.203 178.618V142.894H858.927L823.203 178.618Z" fill="#5DCA47"/>
<path d="M787.48 178.618V142.894H823.204L787.48 178.618Z" fill="#5DCA47"/>
<path d="M751.756 142.895H787.479V178.618L751.756 142.895Z" fill="#5DCA47"/>
<path d="M823.204 178.618V214.341H787.48L823.204 178.618Z" fill="#5DCA47"/>
<path d="M858.927 214.341H823.203V178.618L858.927 214.341Z" fill="#5DCA47"/>
<path d="M358.212 178.618V214.341H322.488L358.212 178.618Z" fill="#5DCA47"/>
<path d="M393.936 178.618V142.894H429.659L393.936 178.618Z" fill="#5DCA47"/>
<path d="M358.211 178.618V142.894H393.934L358.211 178.618Z" fill="#5DCA47"/>
<path d="M322.488 142.895H358.212V178.618L322.488 142.895Z" fill="#5DCA47"/>
<path d="M393.934 178.618V214.341H358.211L393.934 178.618Z" fill="#5DCA47"/>
<path d="M429.659 214.341H393.936V178.618L429.659 214.341Z" fill="#5DCA47"/>
<path d="M1002.21 178.618V214.341H966.488L1002.21 178.618Z" fill="#5DCA47"/>
<path d="M1037.94 178.618V142.894H1073.66L1037.94 178.618Z" fill="#5DCA47"/>
<path d="M1002.21 178.618V142.894H1037.93L1002.21 178.618Z" fill="#5DCA47"/>
<path d="M966.488 142.895H1002.21V178.618L966.488 142.895Z" fill="#5DCA47"/>
<path d="M1037.93 178.618V214.341H1002.21L1037.93 178.618Z" fill="#5DCA47"/>
<path d="M1073.66 214.341H1037.94V178.618L1073.66 214.341Z" fill="#5DCA47"/>
<path d="M35.7235 107.171V142.894H0L35.7235 107.171Z" fill="#5DCA47"/>
<path d="M71.4473 107.171V71.4471H107.171L71.4473 107.171Z" fill="#5DCA47"/>
<path d="M35.7227 107.171V71.4471H71.4462L35.7227 107.171Z" fill="#5DCA47"/>
<path d="M0 71.4474H35.7235V107.171L0 71.4474Z" fill="#5DCA47"/>
<path d="M71.4462 107.171V142.894H35.7227L71.4462 107.171Z" fill="#5DCA47"/>
<path d="M107.171 142.894H71.4473V107.171L107.171 142.894Z" fill="#5DCA47"/>
<path d="M679.724 107.171V142.894H644L679.724 107.171Z" fill="#5DCA47"/>
<path d="M715.447 107.171V71.4471H751.171L715.447 107.171Z" fill="#5DCA47"/>
<path d="M679.723 107.171V71.4471H715.446L679.723 107.171Z" fill="#5DCA47"/>
<path d="M644 71.4474H679.724V107.171L644 71.4474Z" fill="#5DCA47"/>
<path d="M715.446 107.171V142.894H679.723L715.446 107.171Z" fill="#5DCA47"/>
<path d="M751.171 142.894H715.447V107.171L751.171 142.894Z" fill="#5DCA47"/>
<path d="M142.873 142.679H107.886L142.873 107.691V142.679Z" stroke="#5DCA47" stroke-width="0.431252"/>
<path d="M214.016 71.6629L179.028 106.65V71.6629H214.016Z" stroke="#5DCA47" stroke-width="0.431252"/>
<path d="M178.293 71.6629L143.306 106.65V71.6629H178.293Z" stroke="#5DCA47" stroke-width="0.431252"/>
<path d="M142.873 71.6632V106.65L107.886 71.6632H142.873Z" stroke="#5DCA47" stroke-width="0.431252"/>
<path d="M178.598 142.679H143.61L178.598 107.691V142.679Z" stroke="#5DCA47" stroke-width="0.431252"/>
<path d="M214.016 142.679H179.028V107.691L214.016 142.679Z" stroke="#5DCA47" stroke-width="0.431252"/>
<path d="M786.873 142.679H751.886L786.873 107.691V142.679Z" stroke="#5DCA47" stroke-width="0.431252"/>
<path d="M858.016 71.6629L823.028 106.65V71.6629H858.016Z" stroke="#5DCA47" stroke-width="0.431252"/>
<path d="M822.293 71.6629L787.306 106.65V71.6629H822.293Z" stroke="#5DCA47" stroke-width="0.431252"/>
<path d="M786.873 71.6632V106.65L751.886 71.6632H786.873Z" stroke="#5DCA47" stroke-width="0.431252"/>
<path d="M822.598 142.679H787.61L822.598 107.691V142.679Z" stroke="#5DCA47" stroke-width="0.431252"/>
<path d="M858.016 142.679H823.028V107.691L858.016 142.679Z" stroke="#5DCA47" stroke-width="0.431252"/>
<path d="M357.215 142.679H322.228L357.215 107.691V142.679Z" stroke="#5DCA47" stroke-width="0.431252"/>
<path d="M428.357 71.6629L393.37 106.65V71.6629H428.357Z" stroke="#5DCA47" stroke-width="0.431252"/>
<path d="M392.633 71.6629L357.646 106.65V71.6629H392.633Z" stroke="#5DCA47" stroke-width="0.431252"/>
<path d="M357.215 71.6631V106.65L322.228 71.6631H357.215Z" stroke="#5DCA47" stroke-width="0.431252"/>
<path d="M392.938 142.679H357.95L392.938 107.691V142.679Z" stroke="#5DCA47" stroke-width="0.431252"/>
<path d="M428.357 142.679H393.37V107.691L428.357 142.679Z" stroke="#5DCA47" stroke-width="0.431252"/>
<path d="M1001.21 142.679H966.228L1001.21 107.691V142.679Z" stroke="#5DCA47" stroke-width="0.431252"/>
<path d="M1072.36 71.6629L1037.37 106.65V71.6629H1072.36Z" stroke="#5DCA47" stroke-width="0.431252"/>
<path d="M1036.63 71.6629L1001.65 106.65V71.6629H1036.63Z" stroke="#5DCA47" stroke-width="0.431252"/>
<path d="M1001.21 71.6631V106.65L966.228 71.6631H1001.21Z" stroke="#5DCA47" stroke-width="0.431252"/>
<path d="M1036.94 142.679H1001.95L1036.94 107.691V142.679Z" stroke="#5DCA47" stroke-width="0.431252"/>
<path d="M1072.36 142.679H1037.37V107.691L1072.36 142.679Z" stroke="#5DCA47" stroke-width="0.431252"/>
<path d="M250.065 107.171V142.894H214.342L250.065 107.171Z" fill="#5DCA47"/>
<path d="M285.789 107.171V71.4471H321.513L285.789 107.171Z" fill="#5DCA47"/>
<path d="M250.064 107.171V71.4471H285.788L250.064 107.171Z" fill="#5DCA47"/>
<path d="M214.342 71.4474H250.065V107.171L214.342 71.4474Z" fill="#5DCA47"/>
<path d="M285.788 107.171V142.894H250.064L285.788 107.171Z" fill="#5DCA47"/>
<path d="M321.513 142.894H285.789V107.171L321.513 142.894Z" fill="#5DCA47"/>
<path d="M894.065 107.171V142.894H858.342L894.065 107.171Z" fill="#5DCA47"/>
<path d="M929.789 107.171V71.4471H965.513L929.789 107.171Z" fill="#5DCA47"/>
<path d="M894.064 107.171V71.4471H929.788L894.064 107.171Z" fill="#5DCA47"/>
<path d="M858.342 71.4474H894.065V107.171L858.342 71.4474Z" fill="#5DCA47"/>
<path d="M929.788 107.171V142.894H894.064L929.788 107.171Z" fill="#5DCA47"/>
<path d="M965.513 142.894H929.789V107.171L965.513 142.894Z" fill="#5DCA47"/>
</svg>
