<svg width="117" height="352" viewBox="0 0 117 352" fill="none" xmlns="http://www.w3.org/2000/svg">
<path d="M29 352L0 352L-1.26763e-06 323L29 352Z" fill="#9FE491"/>
<path d="M29 293L0 293L-1.26763e-06 264L29 293Z" fill="#9FE491"/>
<path d="M29 235L0 235L-1.31134e-06 205L29 235Z" fill="#9FE491"/>
<path d="M29 176L0 176L-1.26763e-06 147L29 176Z" fill="#9FE491"/>
<path d="M29 117L0 117L-1.26763e-06 88L29 117Z" fill="#9FE491"/>
<path d="M29 59L0 59L-1.31134e-06 29L29 59Z" fill="#9FE491"/>
<path d="M29 323L0 323L-1.31134e-06 293L29 323Z" fill="#9FE491"/>
<path d="M29 264L0 264L-1.26763e-06 235L29 264Z" fill="#9FE491"/>
<path d="M29 205L0 205L-1.26763e-06 176L29 205Z" fill="#9FE491"/>
<path d="M29 147L0 147L-1.31134e-06 117L29 147Z" fill="#9FE491"/>
<path d="M29 88L0 88L-1.26763e-06 59L29 88Z" fill="#9FE491"/>
<path d="M29 29L0 29L-1.26763e-06 0L29 29Z" fill="#9FE491"/>
<path d="M59 352L30 352L30 323L59 352Z" fill="#5DCA47"/>
<path d="M59 293L30 293L30 264L59 293Z" fill="#5DCA47"/>
<path d="M59 235L30 235L30 205L59 235Z" fill="#5DCA47"/>
<path d="M59 176L30 176L30 147L59 176Z" fill="#5DCA47"/>
<path d="M59 117L30 117L30 88L59 117Z" fill="#5DCA47"/>
<path d="M59 59L30 59L30 29L59 59Z" fill="#5DCA47"/>
<path d="M59 323L30 323L30 293L59 323Z" fill="#5DCA47"/>
<path d="M59 264L30 264L30 235L59 264Z" fill="#5DCA47"/>
<path d="M59 205L30 205L30 176L59 205Z" fill="#5DCA47"/>
<path d="M59 147L30 147L30 117L59 147Z" fill="#5DCA47"/>
<path d="M59 88L30 88L30 59L59 88Z" fill="#5DCA47"/>
<path d="M59 29L30 29L30 0L59 29Z" fill="#5DCA47"/>
<path d="M88 352L59 352L59 323L88 352Z" fill="#48B532"/>
<path d="M117 352L88 352L88 323L117 352Z" fill="#369524"/>
<path d="M88 293L59 293L59 264L88 293Z" fill="#48B532"/>
<path d="M117 293L88 293L88 264L117 293Z" fill="#369524"/>
<path d="M88 235L59 235L59 205L88 235Z" fill="#48B532"/>
<path d="M117 235L88 235L88 205L117 235Z" fill="#369524"/>
<path d="M88 176L59 176L59 147L88 176Z" fill="#48B532"/>
<path d="M117 176L88 176L88 147L117 176Z" fill="#369524"/>
<path d="M88 117L59 117L59 88L88 117Z" fill="#48B532"/>
<path d="M117 117L88 117L88 88L117 117Z" fill="#369524"/>
<path d="M88 59L59 59L59 29L88 59Z" fill="#48B532"/>
<path d="M117 59L88 59L88 29L117 59Z" fill="#369524"/>
<path d="M88 323L59 323L59 293L88 323Z" fill="#48B532"/>
<path d="M117 323L88 323L88 293L117 323Z" fill="#369524"/>
<path d="M88 264L59 264L59 235L88 264Z" fill="#48B532"/>
<path d="M117 264L88 264L88 235L117 264Z" fill="#369524"/>
<path d="M88 205L59 205L59 176L88 205Z" fill="#48B532"/>
<path d="M117 205L88 205L88 176L117 205Z" fill="#369524"/>
<path d="M88 147L59 147L59 117L88 147Z" fill="#48B532"/>
<path d="M117 147L88 147L88 117L117 147Z" fill="#369524"/>
<path d="M88 88L59 88L59 59L88 88Z" fill="#48B532"/>
<path d="M117 88L88 88L88 59L117 88Z" fill="#369524"/>
<path d="M88 29L59 29L59 0L88 29Z" fill="#48B532"/>
<path d="M117 29L88 29L88 0L117 29Z" fill="#369524"/>
</svg>
