<svg width="1260" height="180" viewBox="0 0 1260 180" fill="none" xmlns="http://www.w3.org/2000/svg">
<path d="M30.4941 60L30.4941 90L0.494141 90L30.4941 60Z" fill="#369524"/>
<path d="M30.4941 0L30.4941 30L0.494141 30L30.4941 0Z" fill="#369524"/>
<path d="M150.494 60L150.494 90L120.494 90L150.494 60Z" fill="#369524"/>
<path d="M150.494 0L150.494 30L120.494 30L150.494 0Z" fill="#369524"/>
<path d="M270.494 60L270.494 90L240.494 90L270.494 60Z" fill="#369524"/>
<path d="M270.494 0L270.494 30L240.494 30L270.494 0Z" fill="#369524"/>
<path d="M90.4941 60L90.4941 90L60.4941 90L90.4941 60Z" fill="#369524"/>
<path d="M90.4941 0L90.4941 30L60.4941 30L90.4941 0Z" fill="#369524"/>
<path d="M210.494 60L210.494 90L180.494 90L210.494 60Z" fill="#369524"/>
<path d="M210.494 0L210.494 30L180.494 30L210.494 0Z" fill="#369524"/>
<path d="M330.494 60L330.494 90L300.494 90L330.494 60Z" fill="#369524"/>
<path d="M330.494 0L330.494 30L300.494 30L330.494 0Z" fill="#369524"/>
<path d="M60.4941 60L60.4941 90L30.4941 90L60.4941 60Z" fill="#369524"/>
<path d="M60.4941 0L60.4941 30L30.4941 30L60.4941 0Z" fill="#369524"/>
<path d="M180.494 60L180.494 90L150.494 90L180.494 60Z" fill="#369524"/>
<path d="M180.494 0L180.494 30L150.494 30L180.494 0Z" fill="#369524"/>
<path d="M300.494 60L300.494 90L270.494 90L300.494 60Z" fill="#369524"/>
<path d="M300.494 0L300.494 30L270.494 30L300.494 0Z" fill="#369524"/>
<path d="M120.494 60L120.494 90L90.4941 90L120.494 60Z" fill="#369524"/>
<path d="M120.494 0L120.494 30L90.4941 30L120.494 0Z" fill="#369524"/>
<path d="M240.494 60L240.494 90L210.494 90L240.494 60Z" fill="#369524"/>
<path d="M240.494 0L240.494 30L210.494 30L240.494 0Z" fill="#369524"/>
<path d="M360.494 60L360.494 90L330.494 90L360.494 60Z" fill="#369524"/>
<path d="M360.494 0L360.494 30L330.494 30L360.494 0Z" fill="#369524"/>
<path d="M389.494 60L389.494 90L359.494 90L389.494 60Z" fill="#369524"/>
<path d="M389.494 0L389.494 30L359.494 30L389.494 0Z" fill="#369524"/>
<path d="M30.4941 120L30.4941 150L0.494141 150L30.4941 120Z" fill="#5DCA47"/>
<path d="M150.494 120L150.494 150L120.494 150L150.494 120Z" fill="#5DCA47"/>
<path d="M270.494 120L270.494 150L240.494 150L270.494 120Z" fill="#5DCA47"/>
<path d="M90.4941 120L90.4941 150L60.4941 150L90.4941 120Z" fill="#5DCA47"/>
<path d="M210.494 120L210.494 150L180.494 150L210.494 120Z" fill="#5DCA47"/>
<path d="M330.494 120L330.494 150L300.494 150L330.494 120Z" fill="#5DCA47"/>
<path d="M60.4941 120L60.4941 150L30.4941 150L60.4941 120Z" fill="#5DCA47"/>
<path d="M180.494 120L180.494 150L150.494 150L180.494 120Z" fill="#5DCA47"/>
<path d="M300.494 120L300.494 150L270.494 150L300.494 120Z" fill="#5DCA47"/>
<path d="M120.494 120L120.494 150L90.4941 150L120.494 120Z" fill="#5DCA47"/>
<path d="M240.494 120L240.494 150L210.494 150L240.494 120Z" fill="#5DCA47"/>
<path d="M360.494 120L360.494 150L330.494 150L360.494 120Z" fill="#5DCA47"/>
<path d="M390.494 120L390.494 150L360.494 150L390.494 120Z" fill="#5DCA47"/>
<path d="M30.4941 60L30.4941 30L59.4941 30L30.4941 60Z" fill="#5DCA47"/>
<path d="M1.49414 60L1.49414 30L30.4941 30L1.49414 60Z" fill="#5DCA47"/>
<path d="M150.494 60L150.494 30L179.494 30L150.494 60Z" fill="#5DCA47"/>
<path d="M270.494 60L270.494 30L299.494 30L270.494 60Z" fill="#5DCA47"/>
<path d="M90.4941 60L90.4941 30L119.494 30L90.4941 60Z" fill="#5DCA47"/>
<path d="M210.494 60L210.494 30L239.494 30L210.494 60Z" fill="#5DCA47"/>
<path d="M330.494 60L330.494 30L359.494 30L330.494 60Z" fill="#5DCA47"/>
<path d="M60.4941 60L60.4941 30L89.4941 30L60.4941 60Z" fill="#5DCA47"/>
<path d="M180.494 60L180.494 30L209.494 30L180.494 60Z" fill="#5DCA47"/>
<path d="M300.494 60L300.494 30L329.494 30L300.494 60Z" fill="#5DCA47"/>
<path d="M120.494 60L120.494 30L149.494 30L120.494 60Z" fill="#5DCA47"/>
<path d="M240.494 60L240.494 30L269.494 30L240.494 60Z" fill="#5DCA47"/>
<path d="M360.494 60L360.494 30L389.494 30L360.494 60Z" fill="#5DCA47"/>
<path d="M30.4941 120L30.4941 90L59.4941 90L30.4941 120Z" fill="#369524"/>
<path d="M30.4941 180L30.4941 150L59.4941 150L30.4941 180Z" fill="#369524"/>
<path d="M1.49414 120L1.49414 90L30.4941 90L1.49414 120Z" fill="#369524"/>
<path d="M1.49414 180L1.49414 150L30.4941 150L1.49414 180Z" fill="#369524"/>
<path d="M150.494 120L150.494 90L179.494 90L150.494 120Z" fill="#369524"/>
<path d="M150.494 180L150.494 150L179.494 150L150.494 180Z" fill="#369524"/>
<path d="M270.494 120L270.494 90L299.494 90L270.494 120Z" fill="#369524"/>
<path d="M270.494 180L270.494 150L299.494 150L270.494 180Z" fill="#369524"/>
<path d="M90.4941 120L90.4941 90L119.494 90L90.4941 120Z" fill="#369524"/>
<path d="M90.4941 180L90.4941 150L119.494 150L90.4941 180Z" fill="#369524"/>
<path d="M210.494 120L210.494 90L239.494 90L210.494 120Z" fill="#369524"/>
<path d="M210.494 180L210.494 150L239.494 150L210.494 180Z" fill="#369524"/>
<path d="M330.494 120L330.494 90L359.494 90L330.494 120Z" fill="#369524"/>
<path d="M330.494 180L330.494 150L359.494 150L330.494 180Z" fill="#369524"/>
<path d="M60.4941 120L60.4941 90L89.4941 90L60.4941 120Z" fill="#369524"/>
<path d="M60.4941 180L60.4941 150L89.4941 150L60.4941 180Z" fill="#369524"/>
<path d="M180.494 120L180.494 90L209.494 90L180.494 120Z" fill="#369524"/>
<path d="M180.494 180L180.494 150L209.494 150L180.494 180Z" fill="#369524"/>
<path d="M300.494 120L300.494 90L329.494 90L300.494 120Z" fill="#369524"/>
<path d="M300.494 180L300.494 150L329.494 150L300.494 180Z" fill="#369524"/>
<path d="M120.494 120L120.494 90L149.494 90L120.494 120Z" fill="#369524"/>
<path d="M120.494 180L120.494 150L149.494 150L120.494 180Z" fill="#369524"/>
<path d="M240.494 120L240.494 90L269.494 90L240.494 120Z" fill="#369524"/>
<path d="M240.494 180L240.494 150L269.494 150L240.494 180Z" fill="#369524"/>
<path d="M360.494 120L360.494 90L389.494 90L360.494 120Z" fill="#369524"/>
<path d="M360.494 180L360.494 150L389.494 150L360.494 180Z" fill="#369524"/>
<path d="M420.494 60L420.494 90L390.494 90L420.494 60Z" fill="#369524"/>
<path d="M420.494 0L420.494 30L390.494 30L420.494 0Z" fill="#369524"/>
<path d="M540.494 60V90L510.494 90L540.494 60Z" fill="#369524"/>
<path d="M540.494 0V30L510.494 30L540.494 0Z" fill="#369524"/>
<path d="M660.494 60V90L630.494 90L660.494 60Z" fill="#369524"/>
<path d="M660.494 0V30L630.494 30L660.494 0Z" fill="#369524"/>
<path d="M480.494 60L480.494 90L450.494 90L480.494 60Z" fill="#369524"/>
<path d="M480.494 0L480.494 30L450.494 30L480.494 0Z" fill="#369524"/>
<path d="M600.494 60V90L570.494 90L600.494 60Z" fill="#369524"/>
<path d="M600.494 0V30L570.494 30L600.494 0Z" fill="#369524"/>
<path d="M720.494 60V90L690.494 90L720.494 60Z" fill="#369524"/>
<path d="M720.494 0V30L690.494 30L720.494 0Z" fill="#369524"/>
<path d="M450.494 60L450.494 90L420.494 90L450.494 60Z" fill="#369524"/>
<path d="M450.494 0L450.494 30L420.494 30L450.494 0Z" fill="#369524"/>
<path d="M570.494 60V90L540.494 90L570.494 60Z" fill="#369524"/>
<path d="M570.494 0V30L540.494 30L570.494 0Z" fill="#369524"/>
<path d="M690.494 60V90L660.494 90L690.494 60Z" fill="#369524"/>
<path d="M690.494 0V30L660.494 30L690.494 0Z" fill="#369524"/>
<path d="M510.494 60L510.494 90L480.494 90L510.494 60Z" fill="#369524"/>
<path d="M510.494 0L510.494 30L480.494 30L510.494 0Z" fill="#369524"/>
<path d="M630.494 60V90L600.494 90L630.494 60Z" fill="#369524"/>
<path d="M630.494 0V30L600.494 30L630.494 0Z" fill="#369524"/>
<path d="M750.494 60V90L720.494 90L750.494 60Z" fill="#369524"/>
<path d="M750.494 0V30L720.494 30L750.494 0Z" fill="#369524"/>
<path d="M779.494 60V90L749.494 90L779.494 60Z" fill="#369524"/>
<path d="M779.494 0V30L749.494 30L779.494 0Z" fill="#369524"/>
<path d="M420.494 120L420.494 150L390.494 150L420.494 120Z" fill="#5DCA47"/>
<path d="M540.494 120V150L510.494 150L540.494 120Z" fill="#5DCA47"/>
<path d="M660.494 120V150L630.494 150L660.494 120Z" fill="#5DCA47"/>
<path d="M480.494 120L480.494 150L450.494 150L480.494 120Z" fill="#5DCA47"/>
<path d="M600.494 120V150L570.494 150L600.494 120Z" fill="#5DCA47"/>
<path d="M720.494 120V150L690.494 150L720.494 120Z" fill="#5DCA47"/>
<path d="M450.494 120L450.494 150L420.494 150L450.494 120Z" fill="#5DCA47"/>
<path d="M570.494 120V150L540.494 150L570.494 120Z" fill="#5DCA47"/>
<path d="M690.494 120V150L660.494 150L690.494 120Z" fill="#5DCA47"/>
<path d="M510.494 120L510.494 150L480.494 150L510.494 120Z" fill="#5DCA47"/>
<path d="M630.494 120V150L600.494 150L630.494 120Z" fill="#5DCA47"/>
<path d="M750.494 120V150L720.494 150L750.494 120Z" fill="#5DCA47"/>
<path d="M780.494 120V150L750.494 150L780.494 120Z" fill="#5DCA47"/>
<path d="M420.494 60L420.494 30L449.494 30L420.494 60Z" fill="#5DCA47"/>
<path d="M391.494 60L391.494 30L420.494 30L391.494 60Z" fill="#5DCA47"/>
<path d="M540.494 60V30L569.494 30L540.494 60Z" fill="#5DCA47"/>
<path d="M660.494 60V30L689.494 30L660.494 60Z" fill="#5DCA47"/>
<path d="M480.494 60L480.494 30L509.494 30L480.494 60Z" fill="#5DCA47"/>
<path d="M600.494 60V30L629.494 30L600.494 60Z" fill="#5DCA47"/>
<path d="M720.494 60V30L749.494 30L720.494 60Z" fill="#5DCA47"/>
<path d="M450.494 60L450.494 30L479.494 30L450.494 60Z" fill="#5DCA47"/>
<path d="M570.494 60V30L599.494 30L570.494 60Z" fill="#5DCA47"/>
<path d="M690.494 60V30L719.494 30L690.494 60Z" fill="#5DCA47"/>
<path d="M510.494 60L510.494 30L539.494 30L510.494 60Z" fill="#5DCA47"/>
<path d="M630.494 60V30L659.494 30L630.494 60Z" fill="#5DCA47"/>
<path d="M750.494 60V30L779.494 30L750.494 60Z" fill="#5DCA47"/>
<path d="M420.494 120L420.494 90L449.494 90L420.494 120Z" fill="#369524"/>
<path d="M420.494 180L420.494 150L449.494 150L420.494 180Z" fill="#369524"/>
<path d="M391.494 120L391.494 90L420.494 90L391.494 120Z" fill="#369524"/>
<path d="M391.494 180L391.494 150L420.494 150L391.494 180Z" fill="#369524"/>
<path d="M540.494 120V90L569.494 90L540.494 120Z" fill="#369524"/>
<path d="M540.494 180V150L569.494 150L540.494 180Z" fill="#369524"/>
<path d="M660.494 120V90L689.494 90L660.494 120Z" fill="#369524"/>
<path d="M660.494 180V150L689.494 150L660.494 180Z" fill="#369524"/>
<path d="M480.494 120L480.494 90L509.494 90L480.494 120Z" fill="#369524"/>
<path d="M480.494 180L480.494 150L509.494 150L480.494 180Z" fill="#369524"/>
<path d="M600.494 120V90L629.494 90L600.494 120Z" fill="#369524"/>
<path d="M600.494 180V150L629.494 150L600.494 180Z" fill="#369524"/>
<path d="M720.494 120V90L749.494 90L720.494 120Z" fill="#369524"/>
<path d="M720.494 180V150L749.494 150L720.494 180Z" fill="#369524"/>
<path d="M450.494 120L450.494 90L479.494 90L450.494 120Z" fill="#369524"/>
<path d="M450.494 180L450.494 150L479.494 150L450.494 180Z" fill="#369524"/>
<path d="M570.494 120V90L599.494 90L570.494 120Z" fill="#369524"/>
<path d="M570.494 180V150L599.494 150L570.494 180Z" fill="#369524"/>
<path d="M690.494 120V90L719.494 90L690.494 120Z" fill="#369524"/>
<path d="M690.494 180V150L719.494 150L690.494 180Z" fill="#369524"/>
<path d="M510.494 120L510.494 90L539.494 90L510.494 120Z" fill="#369524"/>
<path d="M510.494 180L510.494 150L539.494 150L510.494 180Z" fill="#369524"/>
<path d="M630.494 120V90L659.494 90L630.494 120Z" fill="#369524"/>
<path d="M630.494 180V150L659.494 150L630.494 180Z" fill="#369524"/>
<path d="M750.494 120V90L779.494 90L750.494 120Z" fill="#369524"/>
<path d="M750.494 180V150L779.494 150L750.494 180Z" fill="#369524"/>
<path d="M810.494 60V90L780.494 90L810.494 60Z" fill="#369524"/>
<path d="M810.494 0V30L780.494 30L810.494 0Z" fill="#369524"/>
<path d="M930.494 60V90L900.494 90L930.494 60Z" fill="#369524"/>
<path d="M930.494 0V30L900.494 30L930.494 0Z" fill="#369524"/>
<path d="M1050.49 60V90L1020.49 90L1050.49 60Z" fill="#369524"/>
<path d="M1050.49 0V30L1020.49 30L1050.49 0Z" fill="#369524"/>
<path d="M870.494 60V90L840.494 90L870.494 60Z" fill="#369524"/>
<path d="M870.494 0V30L840.494 30L870.494 0Z" fill="#369524"/>
<path d="M990.494 60V90L960.494 90L990.494 60Z" fill="#369524"/>
<path d="M990.494 0V30L960.494 30L990.494 0Z" fill="#369524"/>
<path d="M1110.49 60V90L1080.49 90L1110.49 60Z" fill="#369524"/>
<path d="M1110.49 0V30L1080.49 30L1110.49 0Z" fill="#369524"/>
<path d="M840.494 60V90L810.494 90L840.494 60Z" fill="#369524"/>
<path d="M840.494 0V30L810.494 30L840.494 0Z" fill="#369524"/>
<path d="M960.494 60V90L930.494 90L960.494 60Z" fill="#369524"/>
<path d="M960.494 0V30L930.494 30L960.494 0Z" fill="#369524"/>
<path d="M1080.49 60V90L1050.49 90L1080.49 60Z" fill="#369524"/>
<path d="M1080.49 0V30L1050.49 30L1080.49 0Z" fill="#369524"/>
<path d="M900.494 60V90L870.494 90L900.494 60Z" fill="#369524"/>
<path d="M900.494 0V30L870.494 30L900.494 0Z" fill="#369524"/>
<path d="M1020.49 60V90L990.494 90L1020.49 60Z" fill="#369524"/>
<path d="M1020.49 0V30L990.494 30L1020.49 0Z" fill="#369524"/>
<path d="M1140.49 60V90L1110.49 90L1140.49 60Z" fill="#369524"/>
<path d="M1140.49 0V30L1110.49 30L1140.49 0Z" fill="#369524"/>
<path d="M1169.49 60V90L1139.49 90L1169.49 60Z" fill="#369524"/>
<path d="M1169.49 0V30L1139.49 30L1169.49 0Z" fill="#369524"/>
<path d="M810.494 120V150L780.494 150L810.494 120Z" fill="#5DCA47"/>
<path d="M930.494 120V150L900.494 150L930.494 120Z" fill="#5DCA47"/>
<path d="M1050.49 120V150L1020.49 150L1050.49 120Z" fill="#5DCA47"/>
<path d="M870.494 120V150L840.494 150L870.494 120Z" fill="#5DCA47"/>
<path d="M990.494 120V150L960.494 150L990.494 120Z" fill="#5DCA47"/>
<path d="M1110.49 120V150L1080.49 150L1110.49 120Z" fill="#5DCA47"/>
<path d="M840.494 120V150L810.494 150L840.494 120Z" fill="#5DCA47"/>
<path d="M960.494 120V150L930.494 150L960.494 120Z" fill="#5DCA47"/>
<path d="M1080.49 120V150L1050.49 150L1080.49 120Z" fill="#5DCA47"/>
<path d="M900.494 120V150L870.494 150L900.494 120Z" fill="#5DCA47"/>
<path d="M1020.49 120V150L990.494 150L1020.49 120Z" fill="#5DCA47"/>
<path d="M1140.49 120V150L1110.49 150L1140.49 120Z" fill="#5DCA47"/>
<path d="M1170.49 120V150L1140.49 150L1170.49 120Z" fill="#5DCA47"/>
<path d="M810.494 60V30L839.494 30L810.494 60Z" fill="#5DCA47"/>
<path d="M781.494 60V30L810.494 30L781.494 60Z" fill="#5DCA47"/>
<path d="M930.494 60V30L959.494 30L930.494 60Z" fill="#5DCA47"/>
<path d="M1050.49 60V30L1079.49 30L1050.49 60Z" fill="#5DCA47"/>
<path d="M870.494 60V30L899.494 30L870.494 60Z" fill="#5DCA47"/>
<path d="M990.494 60V30L1019.49 30L990.494 60Z" fill="#5DCA47"/>
<path d="M1110.49 60V30L1139.49 30L1110.49 60Z" fill="#5DCA47"/>
<path d="M840.494 60V30L869.494 30L840.494 60Z" fill="#5DCA47"/>
<path d="M960.494 60V30L989.494 30L960.494 60Z" fill="#5DCA47"/>
<path d="M1080.49 60V30L1109.49 30L1080.49 60Z" fill="#5DCA47"/>
<path d="M900.494 60V30L929.494 30L900.494 60Z" fill="#5DCA47"/>
<path d="M1020.49 60V30L1049.49 30L1020.49 60Z" fill="#5DCA47"/>
<path d="M1140.49 60V30L1169.49 30L1140.49 60Z" fill="#5DCA47"/>
<path d="M810.494 120V90L839.494 90L810.494 120Z" fill="#369524"/>
<path d="M810.494 180V150L839.494 150L810.494 180Z" fill="#369524"/>
<path d="M781.494 120V90L810.494 90L781.494 120Z" fill="#369524"/>
<path d="M781.494 180V150L810.494 150L781.494 180Z" fill="#369524"/>
<path d="M930.494 120V90L959.494 90L930.494 120Z" fill="#369524"/>
<path d="M930.494 180V150L959.494 150L930.494 180Z" fill="#369524"/>
<path d="M1050.49 120V90L1079.49 90L1050.49 120Z" fill="#369524"/>
<path d="M1050.49 180V150L1079.49 150L1050.49 180Z" fill="#369524"/>
<path d="M870.494 120V90L899.494 90L870.494 120Z" fill="#369524"/>
<path d="M870.494 180V150L899.494 150L870.494 180Z" fill="#369524"/>
<path d="M990.494 120V90L1019.49 90L990.494 120Z" fill="#369524"/>
<path d="M990.494 180V150L1019.49 150L990.494 180Z" fill="#369524"/>
<path d="M1110.49 120V90L1139.49 90L1110.49 120Z" fill="#369524"/>
<path d="M1110.49 180V150L1139.49 150L1110.49 180Z" fill="#369524"/>
<path d="M840.494 120V90L869.494 90L840.494 120Z" fill="#369524"/>
<path d="M840.494 180V150L869.494 150L840.494 180Z" fill="#369524"/>
<path d="M960.494 120V90L989.494 90L960.494 120Z" fill="#369524"/>
<path d="M960.494 180V150L989.494 150L960.494 180Z" fill="#369524"/>
<path d="M1080.49 120V90L1109.49 90L1080.49 120Z" fill="#369524"/>
<path d="M1080.49 180V150L1109.49 150L1080.49 180Z" fill="#369524"/>
<path d="M900.494 120V90L929.494 90L900.494 120Z" fill="#369524"/>
<path d="M900.494 180V150L929.494 150L900.494 180Z" fill="#369524"/>
<path d="M1020.49 120V90L1049.49 90L1020.49 120Z" fill="#369524"/>
<path d="M1020.49 180V150L1049.49 150L1020.49 180Z" fill="#369524"/>
<path d="M1140.49 120V90L1169.49 90L1140.49 120Z" fill="#369524"/>
<path d="M1140.49 180V150L1169.49 150L1140.49 180Z" fill="#369524"/>
<path d="M1199.5 60V90L1169.5 90L1199.5 60Z" fill="#369524"/>
<path d="M1199.5 0V30L1169.5 30L1199.5 0Z" fill="#369524"/>
<path d="M1229.5 60V90L1199.5 90L1229.5 60Z" fill="#369524"/>
<path d="M1229.5 0V30L1199.5 30L1229.5 0Z" fill="#369524"/>
<path d="M1258.5 60V90L1228.5 90L1258.5 60Z" fill="#369524"/>
<path d="M1258.5 0V30L1228.5 30L1258.5 0Z" fill="#369524"/>
<path d="M1199.5 120V150L1169.5 150L1199.5 120Z" fill="#5DCA47"/>
<path d="M1229.5 120V150L1199.5 150L1229.5 120Z" fill="#5DCA47"/>
<path d="M1259.5 120V150L1229.5 150L1259.5 120Z" fill="#5DCA47"/>
<path d="M1199.5 60V30L1228.5 30L1199.5 60Z" fill="#5DCA47"/>
<path d="M1169.5 60V30L1198.5 30L1169.5 60Z" fill="#5DCA47"/>
<path d="M1229.5 60V30L1258.5 30L1229.5 60Z" fill="#5DCA47"/>
<path d="M1199.5 120V90L1228.5 90L1199.5 120Z" fill="#369524"/>
<path d="M1199.5 180V150L1228.5 150L1199.5 180Z" fill="#369524"/>
<path d="M1169.5 120V90L1198.5 90L1169.5 120Z" fill="#369524"/>
<path d="M1169.5 180V150L1198.5 150L1169.5 180Z" fill="#369524"/>
<path d="M1229.5 120V90L1258.5 90L1229.5 120Z" fill="#369524"/>
<path d="M1229.5 180V150L1258.5 150L1229.5 180Z" fill="#369524"/>
</svg>
