<svg width="884" height="437" viewBox="0 0 884 437" fill="none" xmlns="http://www.w3.org/2000/svg">
<path d="M565.798 260.061L601.157 260.061L601.157 224.702L565.798 260.061Z" fill="#9FE491"/>
<path d="M565.798 295.419L530.44 295.419L530.44 330.777L565.798 295.419Z" fill="#9FE491"/>
<path d="M565.798 260.06L530.44 260.06L530.44 295.419L565.798 260.06Z" fill="#9FE491"/>
<path d="M530.44 224.702L530.44 260.061L565.799 260.061L530.44 224.702Z" fill="#9FE491"/>
<path d="M565.798 295.419L601.157 295.419L601.157 260.061L565.798 295.419Z" fill="#9FE491"/>
<path d="M601.157 330.778L601.157 295.419L565.798 295.419L601.157 330.778Z" fill="#9FE491"/>
<path d="M389.679 260.061L425.037 260.061L425.037 224.702L389.679 260.061Z" fill="#9FE491"/>
<path d="M389.679 295.419L354.32 295.419L354.32 330.777L389.679 295.419Z" fill="#9FE491"/>
<path d="M389.679 260.06L354.32 260.06L354.32 295.419L389.679 260.06Z" fill="#9FE491"/>
<path d="M354.32 224.702L354.32 260.061L389.679 260.061L354.32 224.702Z" fill="#9FE491"/>
<path d="M389.679 295.419L425.037 295.419L425.037 260.061L389.679 295.419Z" fill="#9FE491"/>
<path d="M425.037 330.778L425.037 295.419L389.679 295.419L425.037 330.778Z" fill="#9FE491"/>
<path d="M213.558 260.061L248.917 260.061L248.917 224.702L213.558 260.061Z" fill="#9FE491"/>
<path d="M213.558 295.419L178.2 295.419L178.2 330.777L213.558 295.419Z" fill="#9FE491"/>
<path d="M213.558 260.06L178.2 260.06L178.2 295.419L213.558 260.06Z" fill="#9FE491"/>
<path d="M178.2 224.702L178.2 260.061L213.558 260.061L178.2 224.702Z" fill="#9FE491"/>
<path d="M213.558 295.419L248.917 295.419L248.917 260.061L213.558 295.419Z" fill="#9FE491"/>
<path d="M248.917 330.778L248.917 295.419L213.558 295.419L248.917 330.778Z" fill="#9FE491"/>
<path d="M600.99 153.838L636.348 153.838L636.348 118.48L600.99 153.838Z" fill="#9FE491"/>
<path d="M600.989 189.197L565.631 189.197L565.631 224.555L600.989 189.197Z" fill="#9FE491"/>
<path d="M600.989 153.838L565.631 153.838L565.631 189.196L600.989 153.838Z" fill="#9FE491"/>
<path d="M565.631 118.48L565.631 153.838L600.99 153.838L565.631 118.48Z" fill="#9FE491"/>
<path d="M600.99 189.197L636.348 189.197L636.348 153.838L600.99 189.197Z" fill="#9FE491"/>
<path d="M636.348 224.555L636.348 189.197L600.99 189.197L636.348 224.555Z" fill="#9FE491"/>
<path d="M424.869 153.838L460.227 153.838L460.227 118.48L424.869 153.838Z" fill="#9FE491"/>
<path d="M424.869 189.197L389.51 189.197L389.51 224.555L424.869 189.197Z" fill="#9FE491"/>
<path d="M424.869 153.838L389.51 153.838L389.51 189.196L424.869 153.838Z" fill="#9FE491"/>
<path d="M389.511 118.48L389.511 153.838L424.869 153.838L389.511 118.48Z" fill="#9FE491"/>
<path d="M424.869 189.197L460.227 189.197L460.227 153.838L424.869 189.197Z" fill="#9FE491"/>
<path d="M460.227 224.555L460.227 189.197L424.869 189.197L460.227 224.555Z" fill="#9FE491"/>
<path d="M248.749 153.838L284.107 153.838L284.107 118.48L248.749 153.838Z" fill="#9FE491"/>
<path d="M248.749 189.197L213.39 189.197L213.39 224.555L248.749 189.197Z" fill="#9FE491"/>
<path d="M248.749 153.838L213.39 153.838L213.39 189.196L248.749 153.838Z" fill="#9FE491"/>
<path d="M213.391 118.48L213.391 153.838L248.749 153.838L213.391 118.48Z" fill="#9FE491"/>
<path d="M248.749 189.197L284.107 189.197L284.107 153.838L248.749 189.197Z" fill="#9FE491"/>
<path d="M284.107 224.555L284.107 189.197L248.749 189.197L284.107 224.555Z" fill="#9FE491"/>
<path d="M600.99 366.283L636.348 366.283L636.348 330.925L600.99 366.283Z" fill="#9FE491"/>
<path d="M600.989 401.641L565.631 401.641L565.631 437L600.989 401.641Z" fill="#9FE491"/>
<path d="M600.989 366.283L565.631 366.283L565.631 401.641L600.989 366.283Z" fill="#9FE491"/>
<path d="M565.631 330.925L565.631 366.283L600.99 366.283L565.631 330.925Z" fill="#9FE491"/>
<path d="M600.99 401.642L636.348 401.642L636.348 366.283L600.99 401.642Z" fill="#9FE491"/>
<path d="M636.348 437L636.348 401.642L600.99 401.642L636.348 437Z" fill="#9FE491"/>
<path d="M424.869 366.283L460.227 366.283L460.227 330.925L424.869 366.283Z" fill="#9FE491"/>
<path d="M424.869 401.641L389.51 401.641L389.51 437L424.869 401.641Z" fill="#9FE491"/>
<path d="M424.869 366.283L389.51 366.283L389.51 401.641L424.869 366.283Z" fill="#9FE491"/>
<path d="M389.511 330.925L389.511 366.283L424.869 366.283L389.511 330.925Z" fill="#9FE491"/>
<path d="M424.869 401.642L460.227 401.642L460.227 366.283L424.869 401.642Z" fill="#9FE491"/>
<path d="M460.227 437L460.227 401.642L424.869 401.642L460.227 437Z" fill="#9FE491"/>
<path d="M248.749 366.283L284.107 366.283L284.107 330.925L248.749 366.283Z" fill="#9FE491"/>
<path d="M248.749 401.641L213.39 401.641L213.39 437L248.749 401.641Z" fill="#9FE491"/>
<path d="M248.749 366.283L213.39 366.283L213.39 401.641L248.749 366.283Z" fill="#9FE491"/>
<path d="M213.391 330.925L213.391 366.283L248.749 366.283L213.391 330.925Z" fill="#9FE491"/>
<path d="M248.749 401.642L284.107 401.642L284.107 366.283L248.749 401.642Z" fill="#9FE491"/>
<path d="M284.107 437L284.107 401.642L248.749 401.642L284.107 437Z" fill="#9FE491"/>
<path d="M636.18 260.061L671.538 260.061L671.538 224.702L636.18 260.061Z" fill="#5DCA47"/>
<path d="M636.18 295.419L600.822 295.419L600.822 330.777L636.18 295.419Z" fill="#5DCA47"/>
<path d="M636.18 260.06L600.822 260.06L600.822 295.419L636.18 260.06Z" fill="#5DCA47"/>
<path d="M600.822 224.702L600.822 260.061L636.18 260.061L600.822 224.702Z" fill="#5DCA47"/>
<path d="M636.18 295.419L671.538 295.419L671.538 260.061L636.18 295.419Z" fill="#5DCA47"/>
<path d="M671.538 330.778L671.538 295.419L636.18 295.419L671.538 330.778Z" fill="#5DCA47"/>
<path d="M742.188 260.061L777.547 260.061L777.547 224.702L742.188 260.061Z" fill="#9FE491"/>
<path d="M742.188 295.419L706.83 295.419L706.83 330.777L742.188 295.419Z" fill="#9FE491"/>
<path d="M742.188 260.06L706.83 260.06L706.83 295.419L742.188 260.06Z" fill="#9FE491"/>
<path d="M706.83 224.702L706.83 260.061L742.189 260.061L706.83 224.702Z" fill="#9FE491"/>
<path d="M742.188 295.419L777.547 295.419L777.547 260.061L742.188 295.419Z" fill="#9FE491"/>
<path d="M777.547 330.778L777.547 295.419L742.188 295.419L777.547 330.778Z" fill="#9FE491"/>
<path d="M812.57 260.061L847.928 260.061L847.928 224.702L812.57 260.061Z" fill="#5DCA47"/>
<path d="M812.569 295.419L777.211 295.419L777.211 330.777L812.569 295.419Z" fill="#5DCA47"/>
<path d="M812.569 260.06L777.211 260.06L777.211 295.419L812.569 260.06Z" fill="#5DCA47"/>
<path d="M777.211 224.702L777.211 260.061L812.57 260.061L777.211 224.702Z" fill="#5DCA47"/>
<path d="M812.57 295.419L847.928 295.419L847.928 260.061L812.57 295.419Z" fill="#5DCA47"/>
<path d="M847.928 330.778L847.928 295.419L812.57 295.419L847.928 330.778Z" fill="#5DCA47"/>
<path d="M460.06 260.061L495.418 260.061L495.418 224.702L460.06 260.061Z" fill="#5DCA47"/>
<path d="M460.059 295.419L424.701 295.419L424.701 330.777L460.059 295.419Z" fill="#5DCA47"/>
<path d="M460.059 260.06L424.701 260.06L424.701 295.419L460.059 260.06Z" fill="#5DCA47"/>
<path d="M424.701 224.702L424.701 260.061L460.06 260.061L424.701 224.702Z" fill="#5DCA47"/>
<path d="M460.06 295.419L495.418 295.419L495.418 260.061L460.06 295.419Z" fill="#5DCA47"/>
<path d="M495.418 330.778L495.418 295.419L460.06 295.419L495.418 330.778Z" fill="#5DCA47"/>
<path d="M283.94 260.061L319.298 260.061L319.298 224.702L283.94 260.061Z" fill="#5DCA47"/>
<path d="M283.94 295.419L248.581 295.419L248.581 330.777L283.94 295.419Z" fill="#5DCA47"/>
<path d="M283.94 260.06L248.581 260.06L248.581 295.419L283.94 260.06Z" fill="#5DCA47"/>
<path d="M248.581 224.702L248.581 260.061L283.94 260.061L248.581 224.702Z" fill="#5DCA47"/>
<path d="M283.94 295.419L319.298 295.419L319.298 260.061L283.94 295.419Z" fill="#5DCA47"/>
<path d="M319.298 330.778L319.298 295.419L283.94 295.419L319.298 330.778Z" fill="#5DCA47"/>
<path d="M35.9707 260.061L71.3291 260.061L71.3291 224.702L35.9707 260.061Z" fill="#9FE491"/>
<path d="M35.9705 295.419L0.612045 295.419L0.612047 330.777L35.9705 295.419Z" fill="#9FE491"/>
<path d="M35.9705 260.06L0.612045 260.06L0.612047 295.419L35.9705 260.06Z" fill="#9FE491"/>
<path d="M0.612274 224.702L0.612276 260.061L35.9707 260.061L0.612274 224.702Z" fill="#9FE491"/>
<path d="M35.9707 295.419L71.3291 295.419L71.3291 260.061L35.9707 295.419Z" fill="#9FE491"/>
<path d="M71.3291 330.778L71.3291 295.419L35.9707 295.419L71.3291 330.778Z" fill="#9FE491"/>
<path d="M106.352 260.061L141.71 260.061L141.71 224.702L106.352 260.061Z" fill="#5DCA47"/>
<path d="M106.352 295.419L70.9932 295.419L70.9932 330.777L106.352 295.419Z" fill="#5DCA47"/>
<path d="M106.352 260.06L70.9932 260.06L70.9932 295.419L106.352 260.06Z" fill="#5DCA47"/>
<path d="M70.9935 224.702L70.9935 260.061L106.352 260.061L70.9935 224.702Z" fill="#5DCA47"/>
<path d="M106.352 295.419L141.71 295.419L141.71 260.061L106.352 295.419Z" fill="#5DCA47"/>
<path d="M141.71 330.778L141.71 295.419L106.352 295.419L141.71 330.778Z" fill="#5DCA47"/>
<path d="M671.37 153.838L706.729 153.838L706.729 118.48L671.37 153.838Z" fill="#5DCA47"/>
<path d="M671.37 189.197L636.012 189.197L636.012 224.555L671.37 189.197Z" fill="#5DCA47"/>
<path d="M671.37 153.838L636.012 153.838L636.012 189.197L671.37 153.838Z" fill="#5DCA47"/>
<path d="M636.012 118.48L636.012 153.838L671.371 153.838L636.012 118.48Z" fill="#5DCA47"/>
<path d="M671.37 189.197L706.729 189.197L706.729 153.838L671.37 189.197Z" fill="#5DCA47"/>
<path d="M706.729 224.555L706.729 189.197L671.37 189.197L706.729 224.555Z" fill="#5DCA47"/>
<path d="M777.648 153.838L813.007 153.838L813.007 118.48L777.648 153.838Z" fill="#9FE491"/>
<path d="M777.648 189.197L742.29 189.197L742.29 224.555L777.648 189.197Z" fill="#9FE491"/>
<path d="M777.648 153.838L742.29 153.838L742.29 189.196L777.648 153.838Z" fill="#9FE491"/>
<path d="M742.29 118.48L742.29 153.838L777.648 153.838L742.29 118.48Z" fill="#9FE491"/>
<path d="M777.648 189.197L813.007 189.197L813.007 153.838L777.648 189.197Z" fill="#9FE491"/>
<path d="M813.007 224.555L813.007 189.197L777.648 189.197L813.007 224.555Z" fill="#9FE491"/>
<path d="M848.029 153.838L883.388 153.838L883.388 118.48L848.029 153.838Z" fill="#5DCA47"/>
<path d="M848.029 189.197L812.671 189.197L812.671 224.555L848.029 189.197Z" fill="#5DCA47"/>
<path d="M848.029 153.838L812.671 153.838L812.671 189.197L848.029 153.838Z" fill="#5DCA47"/>
<path d="M812.671 118.48L812.671 153.838L848.03 153.838L812.671 118.48Z" fill="#5DCA47"/>
<path d="M848.029 189.197L883.388 189.197L883.388 153.838L848.029 189.197Z" fill="#5DCA47"/>
<path d="M883.388 224.555L883.388 189.197L848.029 189.197L883.388 224.555Z" fill="#5DCA47"/>
<path d="M495.25 153.838L530.608 153.838L530.608 118.48L495.25 153.838Z" fill="#5DCA47"/>
<path d="M495.249 189.197L459.891 189.197L459.891 224.555L495.249 189.197Z" fill="#5DCA47"/>
<path d="M495.249 153.838L459.891 153.838L459.891 189.197L495.249 153.838Z" fill="#5DCA47"/>
<path d="M459.891 118.48L459.891 153.838L495.25 153.838L459.891 118.48Z" fill="#5DCA47"/>
<path d="M495.25 189.197L530.608 189.197L530.608 153.838L495.25 189.197Z" fill="#5DCA47"/>
<path d="M530.608 224.555L530.608 189.197L495.25 189.197L530.608 224.555Z" fill="#5DCA47"/>
<path d="M319.13 153.838L354.488 153.838L354.488 118.48L319.13 153.838Z" fill="#5DCA47"/>
<path d="M319.13 189.197L283.771 189.197L283.771 224.555L319.13 189.197Z" fill="#5DCA47"/>
<path d="M319.13 153.838L283.771 153.838L283.771 189.197L319.13 153.838Z" fill="#5DCA47"/>
<path d="M283.772 118.48L283.772 153.838L319.13 153.838L283.772 118.48Z" fill="#5DCA47"/>
<path d="M319.13 189.197L354.488 189.197L354.488 153.838L319.13 189.197Z" fill="#5DCA47"/>
<path d="M354.488 224.555L354.488 189.197L319.13 189.197L354.488 224.555Z" fill="#5DCA47"/>
<path d="M565.587 35.3586L600.945 35.3586L600.945 0.00018156L565.587 35.3586Z" fill="#9FE491"/>
<path d="M565.587 70.7168L530.228 70.7168L530.228 106.075L565.587 70.7168Z" fill="#9FE491"/>
<path d="M565.587 35.3583L530.228 35.3583L530.228 70.7168L565.587 35.3583Z" fill="#9FE491"/>
<path d="M530.229 0L530.229 35.3584L565.587 35.3584L530.229 0Z" fill="#9FE491"/>
<path d="M565.587 70.717L600.945 70.717L600.945 35.3586L565.587 70.717Z" fill="#9FE491"/>
<path d="M600.945 106.075L600.945 70.717L565.587 70.717L600.945 106.075Z" fill="#9FE491"/>
<path d="M389.467 35.3586L424.825 35.3586L424.825 0.00018156L389.467 35.3586Z" fill="#9FE491"/>
<path d="M389.467 70.7169L354.108 70.7169L354.108 106.075L389.467 70.7169Z" fill="#9FE491"/>
<path d="M389.467 35.3583L354.108 35.3583L354.108 70.7168L389.467 35.3583Z" fill="#9FE491"/>
<path d="M354.109 0L354.109 35.3584L389.467 35.3584L354.109 0Z" fill="#9FE491"/>
<path d="M389.467 70.717L424.825 70.717L424.825 35.3586L389.467 70.717Z" fill="#9FE491"/>
<path d="M424.825 106.075L424.825 70.717L389.467 70.717L424.825 106.075Z" fill="#9FE491"/>
<path d="M635.968 35.3586L671.326 35.3586L671.326 0.00018156L635.968 35.3586Z" fill="#5DCA47"/>
<path d="M635.968 70.7168L600.609 70.7168L600.609 106.075L635.968 70.7168Z" fill="#5DCA47"/>
<path d="M635.968 35.3583L600.609 35.3583L600.609 70.7168L635.968 35.3583Z" fill="#5DCA47"/>
<path d="M600.61 0L600.61 35.3584L635.968 35.3584L600.61 0Z" fill="#5DCA47"/>
<path d="M635.968 70.717L671.326 70.717L671.326 35.3586L635.968 70.717Z" fill="#5DCA47"/>
<path d="M671.326 106.075L671.326 70.717L635.968 70.717L671.326 106.075Z" fill="#5DCA47"/>
<path d="M459.848 35.3586L495.206 35.3586L495.206 0.00018156L459.848 35.3586Z" fill="#5DCA47"/>
<path d="M459.848 70.7169L424.489 70.7169L424.489 106.075L459.848 70.7169Z" fill="#5DCA47"/>
<path d="M459.848 35.3583L424.489 35.3583L424.489 70.7168L459.848 35.3583Z" fill="#5DCA47"/>
<path d="M424.489 0L424.489 35.3584L459.848 35.3584L424.489 0Z" fill="#5DCA47"/>
<path d="M459.848 70.717L495.206 70.717L495.206 35.3586L459.848 70.717Z" fill="#5DCA47"/>
<path d="M495.206 106.075L495.206 70.717L459.848 70.717L495.206 106.075Z" fill="#5DCA47"/>
<path d="M214.09 35.3586L249.448 35.3586L249.448 0.00018156L214.09 35.3586Z" fill="#9FE491"/>
<path d="M214.09 70.7169L178.731 70.7169L178.731 106.075L214.09 70.7169Z" fill="#9FE491"/>
<path d="M214.09 35.3583L178.731 35.3583L178.731 70.7168L214.09 35.3583Z" fill="#9FE491"/>
<path d="M178.732 0L178.732 35.3584L214.09 35.3584L178.732 0Z" fill="#9FE491"/>
<path d="M214.09 70.717L249.448 70.717L249.448 35.3586L214.09 70.717Z" fill="#9FE491"/>
<path d="M249.448 106.075L249.448 70.717L214.09 70.717L249.448 106.075Z" fill="#9FE491"/>
<path d="M284.471 35.3586L319.829 35.3586L319.829 0.00018156L284.471 35.3586Z" fill="#5DCA47"/>
<path d="M284.471 70.7169L249.112 70.7169L249.112 106.075L284.471 70.7169Z" fill="#5DCA47"/>
<path d="M284.471 35.3583L249.112 35.3583L249.112 70.7168L284.471 35.3583Z" fill="#5DCA47"/>
<path d="M249.113 0L249.113 35.3584L284.471 35.3584L249.113 0Z" fill="#5DCA47"/>
<path d="M284.471 70.717L319.829 70.717L319.829 35.3586L284.471 70.717Z" fill="#5DCA47"/>
<path d="M319.829 106.075L319.829 70.717L284.471 70.717L319.829 106.075Z" fill="#5DCA47"/>
<path d="M671.37 366.283L706.729 366.283L706.729 330.925L671.37 366.283Z" fill="#5DCA47"/>
<path d="M671.37 401.641L636.012 401.641L636.012 437L671.37 401.641Z" fill="#5DCA47"/>
<path d="M671.37 366.283L636.012 366.283L636.012 401.641L671.37 366.283Z" fill="#5DCA47"/>
<path d="M636.012 330.925L636.012 366.283L671.371 366.283L636.012 330.925Z" fill="#5DCA47"/>
<path d="M671.37 401.642L706.729 401.642L706.729 366.283L671.37 401.642Z" fill="#5DCA47"/>
<path d="M706.729 437L706.729 401.642L671.37 401.642L706.729 437Z" fill="#5DCA47"/>
<path d="M495.25 366.283L530.608 366.283L530.608 330.925L495.25 366.283Z" fill="#5DCA47"/>
<path d="M495.249 401.641L459.891 401.641L459.891 437L495.249 401.641Z" fill="#5DCA47"/>
<path d="M495.249 366.283L459.891 366.283L459.891 401.641L495.249 366.283Z" fill="#5DCA47"/>
<path d="M459.891 330.925L459.891 366.283L495.25 366.283L459.891 330.925Z" fill="#5DCA47"/>
<path d="M495.25 401.642L530.608 401.642L530.608 366.283L495.25 401.642Z" fill="#5DCA47"/>
<path d="M530.608 437L530.608 401.642L495.25 401.642L530.608 437Z" fill="#5DCA47"/>
<path d="M319.13 366.283L354.488 366.283L354.488 330.925L319.13 366.283Z" fill="#5DCA47"/>
<path d="M319.13 401.641L283.771 401.641L283.771 437L319.13 401.641Z" fill="#5DCA47"/>
<path d="M319.13 366.283L283.771 366.283L283.771 401.641L319.13 366.283Z" fill="#5DCA47"/>
<path d="M283.772 330.925L283.772 366.283L319.13 366.283L283.772 330.925Z" fill="#5DCA47"/>
<path d="M319.13 401.642L354.488 401.642L354.488 366.283L319.13 401.642Z" fill="#5DCA47"/>
<path d="M354.488 437L354.488 401.642L319.13 401.642L354.488 437Z" fill="#5DCA47"/>
</svg>
