<svg width="234" height="349" viewBox="0 0 234 349" fill="none" xmlns="http://www.w3.org/2000/svg">
<path d="M205 29.3359L205 0.335938L176 0.335937L205 29.3359Z" fill="#5DCA47"/>
<path d="M146 29.3359L146 0.335938L117 0.335937L146 29.3359Z" fill="#5DCA47"/>
<path d="M88 29.3359L88 0.335938L58 0.335937L88 29.3359Z" fill="#5DCA47"/>
<path d="M29 29.3359L29 0.335938L0 0.335937L29 29.3359Z" fill="#5DCA47"/>
<path d="M29 58.3359L29 87.3359L58 87.3359L29 58.3359Z" fill="#5DCA47"/>
<path d="M234 14.3359L205 14.3359L205 43.3359L234 14.3359Z" fill="#9FE491"/>
<path d="M176 14.3359L146 14.3359L146 43.3359L176 14.3359Z" fill="#9FE491"/>
<path d="M117 14.3359L88 14.3359L88 43.3359L117 14.3359Z" fill="#9FE491"/>
<path d="M58 14.3359L29 14.3359L29 43.3359L58 14.3359Z" fill="#9FE491"/>
<path d="M88 58.3359L88 87.3359L117 87.3359L88 58.3359Z" fill="#5DCA47"/>
<path d="M146 58.3359L146 87.3359L176 87.3359L146 58.3359Z" fill="#5DCA47"/>
<path d="M205 58.3359L205 87.3359L234 87.3359L205 58.3359Z" fill="#5DCA47"/>
<path d="M0 73.3359L29 73.3359L29 44.3359L0 73.3359Z" fill="#9FE491"/>
<path d="M58 73.3359L88 73.3359L88 44.3359L58 73.3359Z" fill="#9FE491"/>
<path d="M117 73.3359L146 73.3359L146 44.3359L117 73.3359Z" fill="#9FE491"/>
<path d="M176 73.3359L205 73.3359L205 44.3359L176 73.3359Z" fill="#9FE491"/>
<path d="M205 116.336L205 87.3359L176 87.3359L205 116.336Z" fill="#5DCA47"/>
<path d="M146 116.336L146 87.3359L117 87.3359L146 116.336Z" fill="#5DCA47"/>
<path d="M88 116.336L88 87.3359L58 87.3359L88 116.336Z" fill="#5DCA47"/>
<path d="M29 116.336L29 87.3359L0 87.3359L29 116.336Z" fill="#5DCA47"/>
<path d="M29 145.336L29 174.336L58 174.336L29 145.336Z" fill="#5DCA47"/>
<path d="M234 101.336L205 101.336L205 130.336L234 101.336Z" fill="#9FE491"/>
<path d="M176 101.336L146 101.336L146 130.336L176 101.336Z" fill="#9FE491"/>
<path d="M117 101.336L88 101.336L88 130.336L117 101.336Z" fill="#9FE491"/>
<path d="M58 101.336L29 101.336L29 130.336L58 101.336Z" fill="#9FE491"/>
<path d="M88 145.336L88 174.336L117 174.336L88 145.336Z" fill="#5DCA47"/>
<path d="M146 145.336L146 174.336L176 174.336L146 145.336Z" fill="#5DCA47"/>
<path d="M205 145.336L205 174.336L234 174.336L205 145.336Z" fill="#5DCA47"/>
<path d="M0 160.336L29 160.336L29 131.336L0 160.336Z" fill="#9FE491"/>
<path d="M58 160.336L88 160.336L88 131.336L58 160.336Z" fill="#9FE491"/>
<path d="M117 160.336L146 160.336L146 131.336L117 160.336Z" fill="#9FE491"/>
<path d="M176 160.336L205 160.336L205 131.336L176 160.336Z" fill="#9FE491"/>
<path d="M205 203.336L205 174.336L176 174.336L205 203.336Z" fill="#5DCA47"/>
<path d="M88 203.336L88 174.336L58 174.336L88 203.336Z" fill="#5DCA47"/>
<path d="M234 188.336L205 188.336L205 217.336L234 188.336Z" fill="#9FE491"/>
<path d="M117 188.336L88 188.336L88 217.336L117 188.336Z" fill="#9FE491"/>
<path d="M88 232.336L88 261.336L117 261.336L88 232.336Z" fill="#5DCA47"/>
<path d="M205 232.336L205 261.336L234 261.336L205 232.336Z" fill="#5DCA47"/>
<path d="M58 247.336L88 247.336L88 218.336L58 247.336Z" fill="#9FE491"/>
<path d="M146 291L146 262L117 262L146 291Z" fill="#5DCA47"/>
<path d="M176 276L146 276L146 305L176 276Z" fill="#9FE491"/>
<path d="M146 320L146 349L176 349L146 320Z" fill="#5DCA47"/>
<path d="M117 335L146 335L146 306L117 335Z" fill="#9FE491"/>
<path d="M176 247.336L205 247.336L205 218.336L176 247.336Z" fill="#9FE491"/>
</svg>
