<svg width="1290" height="176" viewBox="0 0 1290 176" fill="none" xmlns="http://www.w3.org/2000/svg">
<path d="M-1.31134e-06 58L30 58L30 88L-1.31134e-06 58Z" fill="#5DCA47"/>
<path d="M-1.31134e-06 146L30 146L30 176L-1.31134e-06 146Z" fill="#5DCA47"/>
<path d="M117 58L147 58L147 88L117 58Z" fill="#5DCA47"/>
<path d="M117 146L147 146L147 176L117 146Z" fill="#5DCA47"/>
<path d="M234 58L264 58L264 88L234 58Z" fill="#5DCA47"/>
<path d="M234 146L264 146L264 176L234 146Z" fill="#5DCA47"/>
<path d="M351 58L381 58L381 88L351 58Z" fill="#5DCA47"/>
<path d="M351 146L381 146L381 176L351 146Z" fill="#5DCA47"/>
<path d="M60 58L30 58L30 88L60 58Z" fill="#5DCA47"/>
<path d="M60 146L30 146L30 176L60 146Z" fill="#5DCA47"/>
<path d="M177 58L147 58L147 88L177 58Z" fill="#5DCA47"/>
<path d="M177 146L147 146L147 176L177 146Z" fill="#5DCA47"/>
<path d="M294 58L264 58L264 88L294 58Z" fill="#5DCA47"/>
<path d="M294 146L264 146L264 176L294 146Z" fill="#5DCA47"/>
<path d="M411 58L381 58L381 88L411 58Z" fill="#5DCA47"/>
<path d="M411 146L381 146L381 176L411 146Z" fill="#5DCA47"/>
<path d="M118 29L88 29L88 0L118 29Z" fill="#5DCA47"/>
<path d="M118 117L88 117L88 88L118 117Z" fill="#5DCA47"/>
<path d="M235 29L205 29L205 0L235 29Z" fill="#5DCA47"/>
<path d="M235 117L205 117L205 88L235 117Z" fill="#5DCA47"/>
<path d="M352 29L322 29L322 0L352 29Z" fill="#5DCA47"/>
<path d="M352 117L322 117L322 88L352 117Z" fill="#5DCA47"/>
<path d="M59 29L89 29L89 0L59 29Z" fill="#5DCA47"/>
<path d="M59 117L89 117L89 88L59 117Z" fill="#5DCA47"/>
<path d="M176 29L206 29L206 0L176 29Z" fill="#5DCA47"/>
<path d="M176 117L206 117L206 88L176 117Z" fill="#5DCA47"/>
<path d="M293 29L323 29L323 0L293 29Z" fill="#5DCA47"/>
<path d="M293 117L323 117L323 88L293 117Z" fill="#5DCA47"/>
<path d="M410 29L440 29L440 0L410 29Z" fill="#5DCA47"/>
<path d="M410 117L440 117L440 88L410 117Z" fill="#5DCA47"/>
<path d="M117 58L88 58L88 29L117 58Z" fill="#2D7520"/>
<path d="M117 146L88 146L88 117L117 146Z" fill="#2D7520"/>
<path d="M234 58L205 58L205 29L234 58Z" fill="#2D7520"/>
<path d="M234 146L205 146L205 117L234 146Z" fill="#2D7520"/>
<path d="M351 58L322 58L322 29L351 58Z" fill="#2D7520"/>
<path d="M351 146L322 146L322 117L351 146Z" fill="#2D7520"/>
<path d="M60 58L89 58L89 29L60 58Z" fill="#2D7520"/>
<path d="M60 146L89 146L89 117L60 146Z" fill="#2D7520"/>
<path d="M177 58L206 58L206 29L177 58Z" fill="#2D7520"/>
<path d="M177 146L206 146L206 117L177 146Z" fill="#2D7520"/>
<path d="M294 58L323 58L323 29L294 58Z" fill="#2D7520"/>
<path d="M294 146L323 146L323 117L294 146Z" fill="#2D7520"/>
<path d="M411 58L440 58L440 29L411 58Z" fill="#2D7520"/>
<path d="M411 146L440 146L440 117L411 146Z" fill="#2D7520"/>
<path d="M88 88L88 58L117 58L88 88Z" fill="#2D7520"/>
<path d="M88 176L88 146L117 146L88 176Z" fill="#2D7520"/>
<path d="M205 88L205 58L234 58L205 88Z" fill="#2D7520"/>
<path d="M205 176L205 146L234 146L205 176Z" fill="#2D7520"/>
<path d="M322 88L322 58L351 58L322 88Z" fill="#2D7520"/>
<path d="M322 176L322 146L351 146L322 176Z" fill="#2D7520"/>
<path d="M89 88L89 58L60 58L89 88Z" fill="#2D7520"/>
<path d="M89 176L89 146L60 146L89 176Z" fill="#2D7520"/>
<path d="M206 88L206 58L177 58L206 88Z" fill="#2D7520"/>
<path d="M206 176L206 146L177 146L206 176Z" fill="#2D7520"/>
<path d="M323 88L323 58L294 58L323 88Z" fill="#2D7520"/>
<path d="M323 176L323 146L294 146L323 176Z" fill="#2D7520"/>
<path d="M440 88L440 58L411 58L440 88Z" fill="#2D7520"/>
<path d="M440 176L440 146L411 146L440 176Z" fill="#2D7520"/>
<path d="M-1.26763e-06 29L30 29L30 58L-1.26763e-06 29Z" fill="#2D7520"/>
<path d="M-1.26763e-06 117L30 117L30 146L-1.26763e-06 117Z" fill="#2D7520"/>
<path d="M117 29L147 29L147 58L117 29Z" fill="#2D7520"/>
<path d="M117 117L147 117L147 146L117 117Z" fill="#2D7520"/>
<path d="M234 29L264 29L264 58L234 29Z" fill="#2D7520"/>
<path d="M234 117L264 117L264 146L234 117Z" fill="#2D7520"/>
<path d="M351 29L381 29L381 58L351 29Z" fill="#2D7520"/>
<path d="M351 117L381 117L381 146L351 117Z" fill="#2D7520"/>
<path d="M30 -1.31134e-06L30 29L0 29L30 -1.31134e-06Z" fill="#2D7520"/>
<path d="M30 88L30 117L0 117L30 88Z" fill="#2D7520"/>
<path d="M147 -1.31134e-06L147 29L117 29L147 -1.31134e-06Z" fill="#2D7520"/>
<path d="M147 88L147 117L117 117L147 88Z" fill="#2D7520"/>
<path d="M264 -1.31134e-06L264 29L234 29L264 -1.31134e-06Z" fill="#2D7520"/>
<path d="M264 88L264 117L234 117L264 88Z" fill="#2D7520"/>
<path d="M381 -1.31134e-06L381 29L351 29L381 -1.31134e-06Z" fill="#2D7520"/>
<path d="M381 88L381 117L351 117L381 88Z" fill="#2D7520"/>
<path d="M60 29L30 29L30 58L60 29Z" fill="#2D7520"/>
<path d="M60 117L30 117L30 146L60 117Z" fill="#2D7520"/>
<path d="M177 29L147 29L147 58L177 29Z" fill="#2D7520"/>
<path d="M177 117L147 117L147 146L177 117Z" fill="#2D7520"/>
<path d="M294 29L264 29L264 58L294 29Z" fill="#2D7520"/>
<path d="M294 117L264 117L264 146L294 117Z" fill="#2D7520"/>
<path d="M411 29L381 29L381 58L411 29Z" fill="#2D7520"/>
<path d="M411 117L381 117L381 146L411 117Z" fill="#2D7520"/>
<path d="M30 -1.31134e-06L30 29L60 29L30 -1.31134e-06Z" fill="#2D7520"/>
<path d="M30 88L30 117L60 117L30 88Z" fill="#2D7520"/>
<path d="M147 -1.31134e-06L147 29L177 29L147 -1.31134e-06Z" fill="#2D7520"/>
<path d="M147 88L147 117L177 117L147 88Z" fill="#2D7520"/>
<path d="M264 -1.31134e-06L264 29L294 29L264 -1.31134e-06Z" fill="#2D7520"/>
<path d="M264 88L264 117L294 117L264 88Z" fill="#2D7520"/>
<path d="M381 -1.31134e-06L381 29L411 29L381 -1.31134e-06Z" fill="#2D7520"/>
<path d="M381 88L381 117L411 117L381 88Z" fill="#2D7520"/>
<path d="M469 58L499 58L499 88L469 58Z" fill="#5DCA47"/>
<path d="M469 146L499 146L499 176L469 146Z" fill="#5DCA47"/>
<path d="M586 58L616 58L616 88L586 58Z" fill="#5DCA47"/>
<path d="M586 146L616 146L616 176L586 146Z" fill="#5DCA47"/>
<path d="M703 58L733 58L733 88L703 58Z" fill="#5DCA47"/>
<path d="M703 146L733 146L733 176L703 146Z" fill="#5DCA47"/>
<path d="M820 58L850 58L850 88L820 58Z" fill="#5DCA47"/>
<path d="M820 146L850 146L850 176L820 146Z" fill="#5DCA47"/>
<path d="M529 58L499 58L499 88L529 58Z" fill="#5DCA47"/>
<path d="M529 146L499 146L499 176L529 146Z" fill="#5DCA47"/>
<path d="M646 58L616 58L616 88L646 58Z" fill="#5DCA47"/>
<path d="M646 146L616 146L616 176L646 146Z" fill="#5DCA47"/>
<path d="M763 58L733 58L733 88L763 58Z" fill="#5DCA47"/>
<path d="M763 146L733 146L733 176L763 146Z" fill="#5DCA47"/>
<path d="M880 58L850 58L850 88L880 58Z" fill="#5DCA47"/>
<path d="M880 146L850 146L850 176L880 146Z" fill="#5DCA47"/>
<path d="M470 29L440 29L440 0L470 29Z" fill="#5DCA47"/>
<path d="M470 117L440 117L440 88L470 117Z" fill="#5DCA47"/>
<path d="M587 29L557 29L557 0L587 29Z" fill="#5DCA47"/>
<path d="M587 117L557 117L557 88L587 117Z" fill="#5DCA47"/>
<path d="M704 29L674 29L674 0L704 29Z" fill="#5DCA47"/>
<path d="M704 117L674 117L674 88L704 117Z" fill="#5DCA47"/>
<path d="M821 29L791 29L791 0L821 29Z" fill="#5DCA47"/>
<path d="M821 117L791 117L791 88L821 117Z" fill="#5DCA47"/>
<path d="M528 29L558 29L558 0L528 29Z" fill="#5DCA47"/>
<path d="M528 117L558 117L558 88L528 117Z" fill="#5DCA47"/>
<path d="M645 29L675 29L675 0L645 29Z" fill="#5DCA47"/>
<path d="M645 117L675 117L675 88L645 117Z" fill="#5DCA47"/>
<path d="M762 29L792 29L792 0L762 29Z" fill="#5DCA47"/>
<path d="M762 117L792 117L792 88L762 117Z" fill="#5DCA47"/>
<path d="M879 29L909 29L909 0L879 29Z" fill="#5DCA47"/>
<path d="M879 117L909 117L909 88L879 117Z" fill="#5DCA47"/>
<path d="M469 58L440 58L440 29L469 58Z" fill="#2D7520"/>
<path d="M469 146L440 146L440 117L469 146Z" fill="#2D7520"/>
<path d="M586 58L557 58L557 29L586 58Z" fill="#2D7520"/>
<path d="M586 146L557 146L557 117L586 146Z" fill="#2D7520"/>
<path d="M703 58L674 58L674 29L703 58Z" fill="#2D7520"/>
<path d="M703 146L674 146L674 117L703 146Z" fill="#2D7520"/>
<path d="M820 58L791 58L791 29L820 58Z" fill="#2D7520"/>
<path d="M820 146L791 146L791 117L820 146Z" fill="#2D7520"/>
<path d="M529 58L558 58L558 29L529 58Z" fill="#2D7520"/>
<path d="M529 146L558 146L558 117L529 146Z" fill="#2D7520"/>
<path d="M646 58L675 58L675 29L646 58Z" fill="#2D7520"/>
<path d="M646 146L675 146L675 117L646 146Z" fill="#2D7520"/>
<path d="M763 58L792 58L792 29L763 58Z" fill="#2D7520"/>
<path d="M763 146L792 146L792 117L763 146Z" fill="#2D7520"/>
<path d="M880 58L909 58L909 29L880 58Z" fill="#2D7520"/>
<path d="M880 146L909 146L909 117L880 146Z" fill="#2D7520"/>
<path d="M440 88L440 58L469 58L440 88Z" fill="#2D7520"/>
<path d="M440 176L440 146L469 146L440 176Z" fill="#2D7520"/>
<path d="M557 88L557 58L586 58L557 88Z" fill="#2D7520"/>
<path d="M557 176L557 146L586 146L557 176Z" fill="#2D7520"/>
<path d="M674 88L674 58L703 58L674 88Z" fill="#2D7520"/>
<path d="M674 176L674 146L703 146L674 176Z" fill="#2D7520"/>
<path d="M791 88L791 58L820 58L791 88Z" fill="#2D7520"/>
<path d="M791 176L791 146L820 146L791 176Z" fill="#2D7520"/>
<path d="M558 88L558 58L529 58L558 88Z" fill="#2D7520"/>
<path d="M558 176L558 146L529 146L558 176Z" fill="#2D7520"/>
<path d="M675 88L675 58L646 58L675 88Z" fill="#2D7520"/>
<path d="M675 176L675 146L646 146L675 176Z" fill="#2D7520"/>
<path d="M792 88L792 58L763 58L792 88Z" fill="#2D7520"/>
<path d="M792 176L792 146L763 146L792 176Z" fill="#2D7520"/>
<path d="M909 88L909 58L880 58L909 88Z" fill="#2D7520"/>
<path d="M909 176L909 146L880 146L909 176Z" fill="#2D7520"/>
<path d="M469 29L499 29L499 58L469 29Z" fill="#2D7520"/>
<path d="M469 117L499 117L499 146L469 117Z" fill="#2D7520"/>
<path d="M586 29L616 29L616 58L586 29Z" fill="#2D7520"/>
<path d="M586 117L616 117L616 146L586 117Z" fill="#2D7520"/>
<path d="M703 29L733 29L733 58L703 29Z" fill="#2D7520"/>
<path d="M703 117L733 117L733 146L703 117Z" fill="#2D7520"/>
<path d="M820 29L850 29L850 58L820 29Z" fill="#2D7520"/>
<path d="M820 117L850 117L850 146L820 117Z" fill="#5DCA47"/>
<path d="M499 -1.31134e-06L499 29L469 29L499 -1.31134e-06Z" fill="#2D7520"/>
<path d="M499 88L499 117L469 117L499 88Z" fill="#2D7520"/>
<path d="M616 -1.31134e-06L616 29L586 29L616 -1.31134e-06Z" fill="#2D7520"/>
<path d="M616 88L616 117L586 117L616 88Z" fill="#2D7520"/>
<path d="M733 -1.31134e-06L733 29L703 29L733 -1.31134e-06Z" fill="#2D7520"/>
<path d="M733 88L733 117L703 117L733 88Z" fill="#2D7520"/>
<path d="M850 -1.31134e-06L850 29L820 29L850 -1.31134e-06Z" fill="#2D7520"/>
<path d="M850 88L850 117L820 117L850 88Z" fill="#5DCA47"/>
<path d="M529 29L499 29L499 58L529 29Z" fill="#2D7520"/>
<path d="M529 117L499 117L499 146L529 117Z" fill="#2D7520"/>
<path d="M646 29L616 29L616 58L646 29Z" fill="#2D7520"/>
<path d="M646 117L616 117L616 146L646 117Z" fill="#2D7520"/>
<path d="M763 29L733 29L733 58L763 29Z" fill="#2D7520"/>
<path d="M763 117L733 117L733 146L763 117Z" fill="#2D7520"/>
<path d="M880 29L850 29L850 58L880 29Z" fill="#2D7520"/>
<path d="M880 117L850 117L850 146L880 117Z" fill="#5DCA47"/>
<path d="M499 -1.31134e-06L499 29L529 29L499 -1.31134e-06Z" fill="#2D7520"/>
<path d="M499 88L499 117L529 117L499 88Z" fill="#2D7520"/>
<path d="M616 -1.31134e-06L616 29L646 29L616 -1.31134e-06Z" fill="#2D7520"/>
<path d="M616 88L616 117L646 117L616 88Z" fill="#2D7520"/>
<path d="M733 -1.31134e-06L733 29L763 29L733 -1.31134e-06Z" fill="#2D7520"/>
<path d="M733 88L733 117L763 117L733 88Z" fill="#2D7520"/>
<path d="M850 -1.31134e-06L850 29L880 29L850 -1.31134e-06Z" fill="#2D7520"/>
<path d="M850 88L850 117L880 117L850 88Z" fill="#5DCA47"/>
<path d="M938 58L968 58L968 88L938 58Z" fill="#5DCA47"/>
<path d="M938 146L968 146L968 176L938 146Z" fill="#5DCA47"/>
<path d="M1055 58L1085 58L1085 88L1055 58Z" fill="#5DCA47"/>
<path d="M1055 146L1085 146L1085 176L1055 146Z" fill="#5DCA47"/>
<path d="M1172 58L1202 58L1202 88L1172 58Z" fill="#5DCA47"/>
<path d="M1172 146L1202 146L1202 176L1172 146Z" fill="#5DCA47"/>
<path d="M998 58L968 58L968 88L998 58Z" fill="#5DCA47"/>
<path d="M998 146L968 146L968 176L998 146Z" fill="#5DCA47"/>
<path d="M1115 58L1085 58L1085 88L1115 58Z" fill="#5DCA47"/>
<path d="M1115 146L1085 146L1085 176L1115 146Z" fill="#5DCA47"/>
<path d="M1232 58L1202 58L1202 88L1232 58Z" fill="#5DCA47"/>
<path d="M1232 146L1202 146L1202 176L1232 146Z" fill="#5DCA47"/>
<path d="M939 29L909 29L909 0L939 29Z" fill="#5DCA47"/>
<path d="M939 117L909 117L909 88L939 117Z" fill="#5DCA47"/>
<path d="M1056 29L1026 29L1026 0L1056 29Z" fill="#5DCA47"/>
<path d="M1056 117L1026 117L1026 88L1056 117Z" fill="#5DCA47"/>
<path d="M1173 29L1143 29L1143 0L1173 29Z" fill="#5DCA47"/>
<path d="M1173 117L1143 117L1143 88L1173 117Z" fill="#5DCA47"/>
<path d="M1290 29L1260 29L1260 0L1290 29Z" fill="#5DCA47"/>
<path d="M1290 117L1260 117L1260 88L1290 117Z" fill="#5DCA47"/>
<path d="M997 29L1027 29L1027 0L997 29Z" fill="#5DCA47"/>
<path d="M997 117L1027 117L1027 88L997 117Z" fill="#5DCA47"/>
<path d="M1114 29L1144 29L1144 0L1114 29Z" fill="#5DCA47"/>
<path d="M1114 117L1144 117L1144 88L1114 117Z" fill="#5DCA47"/>
<path d="M1231 29L1261 29L1261 0L1231 29Z" fill="#5DCA47"/>
<path d="M1231 117L1261 117L1261 88L1231 117Z" fill="#5DCA47"/>
<path d="M938 58L909 58L909 29L938 58Z" fill="#2D7520"/>
<path d="M938 146L909 146L909 117L938 146Z" fill="#2D7520"/>
<path d="M1055 58L1026 58L1026 29L1055 58Z" fill="#2D7520"/>
<path d="M1055 146L1026 146L1026 117L1055 146Z" fill="#2D7520"/>
<path d="M1172 58L1143 58L1143 29L1172 58Z" fill="#2D7520"/>
<path d="M1172 146L1143 146L1143 117L1172 146Z" fill="#2D7520"/>
<path d="M1289 58L1260 58L1260 29L1289 58Z" fill="#2D7520"/>
<path d="M1289 146L1260 146L1260 117L1289 146Z" fill="#2D7520"/>
<path d="M998 58L1027 58L1027 29L998 58Z" fill="#2D7520"/>
<path d="M998 146L1027 146L1027 117L998 146Z" fill="#2D7520"/>
<path d="M1115 58L1144 58L1144 29L1115 58Z" fill="#2D7520"/>
<path d="M1115 146L1144 146L1144 117L1115 146Z" fill="#2D7520"/>
<path d="M1232 58L1261 58L1261 29L1232 58Z" fill="#2D7520"/>
<path d="M1232 146L1261 146L1261 117L1232 146Z" fill="#2D7520"/>
<path d="M909 88L909 58L938 58L909 88Z" fill="#2D7520"/>
<path d="M909 176L909 146L938 146L909 176Z" fill="#2D7520"/>
<path d="M1026 88L1026 58L1055 58L1026 88Z" fill="#2D7520"/>
<path d="M1026 176L1026 146L1055 146L1026 176Z" fill="#2D7520"/>
<path d="M1143 88L1143 58L1172 58L1143 88Z" fill="#2D7520"/>
<path d="M1143 176L1143 146L1172 146L1143 176Z" fill="#2D7520"/>
<path d="M1260 88L1260 58L1289 58L1260 88Z" fill="#2D7520"/>
<path d="M1260 176L1260 146L1289 146L1260 176Z" fill="#2D7520"/>
<path d="M1027 88L1027 58L998 58L1027 88Z" fill="#2D7520"/>
<path d="M1027 176L1027 146L998 146L1027 176Z" fill="#2D7520"/>
<path d="M1144 88L1144 58L1115 58L1144 88Z" fill="#2D7520"/>
<path d="M1144 176L1144 146L1115 146L1144 176Z" fill="#2D7520"/>
<path d="M1261 88L1261 58L1232 58L1261 88Z" fill="#2D7520"/>
<path d="M1261 176L1261 146L1232 146L1261 176Z" fill="#2D7520"/>
<path d="M938 29L968 29L968 58L938 29Z" fill="#2D7520"/>
<path d="M938 117L968 117L968 146L938 117Z" fill="#2D7520"/>
<path d="M1055 29L1085 29L1085 58L1055 29Z" fill="#2D7520"/>
<path d="M1055 117L1085 117L1085 146L1055 117Z" fill="#2D7520"/>
<path d="M1172 29L1202 29L1202 58L1172 29Z" fill="#2D7520"/>
<path d="M1172 117L1202 117L1202 146L1172 117Z" fill="#2D7520"/>
<path d="M968 -1.31134e-06L968 29L938 29L968 -1.31134e-06Z" fill="#2D7520"/>
<path d="M968 88L968 117L938 117L968 88Z" fill="#2D7520"/>
<path d="M1085 -1.31134e-06L1085 29L1055 29L1085 -1.31134e-06Z" fill="#2D7520"/>
<path d="M1085 88L1085 117L1055 117L1085 88Z" fill="#2D7520"/>
<path d="M1202 -1.31134e-06L1202 29L1172 29L1202 -1.31134e-06Z" fill="#2D7520"/>
<path d="M1202 88L1202 117L1172 117L1202 88Z" fill="#2D7520"/>
<path d="M998 29L968 29L968 58L998 29Z" fill="#2D7520"/>
<path d="M998 117L968 117L968 146L998 117Z" fill="#2D7520"/>
<path d="M1115 29L1085 29L1085 58L1115 29Z" fill="#2D7520"/>
<path d="M1115 117L1085 117L1085 146L1115 117Z" fill="#2D7520"/>
<path d="M1232 29L1202 29L1202 58L1232 29Z" fill="#2D7520"/>
<path d="M1232 117L1202 117L1202 146L1232 117Z" fill="#2D7520"/>
<path d="M968 -1.31134e-06L968 29L998 29L968 -1.31134e-06Z" fill="#2D7520"/>
<path d="M968 88L968 117L998 117L968 88Z" fill="#2D7520"/>
<path d="M1085 -1.31134e-06L1085 29L1115 29L1085 -1.31134e-06Z" fill="#2D7520"/>
<path d="M1085 88L1085 117L1115 117L1085 88Z" fill="#2D7520"/>
<path d="M1202 -1.31134e-06L1202 29L1232 29L1202 -1.31134e-06Z" fill="#2D7520"/>
<path d="M1202 88L1202 117L1232 117L1202 88Z" fill="#2D7520"/>
</svg>
